<svg width="43" height="43" viewBox="0 0 43 43" fill="none" xmlns="http://www.w3.org/2000/svg">
<g filter="url(#filter0_d_308_1156)">
<path fill-rule="evenodd" clip-rule="evenodd" d="M21.0526 34.1053C30.4705 34.1053 38.1053 26.4705 38.1053 17.0526C38.1053 7.63474 30.4705 0 21.0526 0C11.6347 0 4 7.63474 4 17.0526C4 26.4705 11.6347 34.1053 21.0526 34.1053ZM21.0557 9.89053H21.6045C23.2666 9.89261 24.8599 10.5542 26.0345 11.7301C27.209 12.9059 27.8688 14.4999 27.8688 16.1618V16.7105C27.8511 16.9059 27.7608 17.0877 27.6156 17.2197C27.4705 17.3518 27.281 17.4247 27.0848 17.4238H27.022C26.8153 17.4059 26.624 17.3067 26.4903 17.148C26.3565 16.9893 26.2912 16.784 26.3086 16.5772V16.1618C26.3086 14.9143 25.813 13.718 24.9308 12.8359C24.0486 11.9539 22.8521 11.4583 21.6045 11.4583H21.189C20.981 11.476 20.7746 11.4104 20.615 11.2758C20.4555 11.1413 20.356 10.949 20.3383 10.7411C20.3206 10.5332 20.3862 10.3267 20.5208 10.1673C20.6553 10.0077 20.8477 9.90819 21.0557 9.89053ZM23.4021 16.7161C23.2551 16.5691 23.1725 16.3697 23.1725 16.1618C23.1725 15.746 23.0073 15.3472 22.7132 15.0531C22.4192 14.7591 22.0203 14.594 21.6045 14.594C21.3965 14.594 21.1971 14.5114 21.0501 14.3644C20.903 14.2174 20.8204 14.0179 20.8204 13.81C20.8204 13.6021 20.903 13.4028 21.0501 13.2558C21.1971 13.1087 21.3965 13.0261 21.6045 13.0261C22.4362 13.0261 23.2339 13.3565 23.822 13.9446C24.4101 14.5326 24.7405 15.3301 24.7405 16.1618C24.7405 16.3697 24.6579 16.5691 24.5109 16.7161C24.3639 16.8631 24.1645 16.9457 23.9565 16.9457C23.7486 16.9457 23.5492 16.8631 23.4021 16.7161ZM26.6463 23.5552L26.6462 23.5615C26.6459 23.7279 26.6107 23.8923 26.5429 24.0443C26.4753 24.196 26.3768 24.3319 26.2537 24.4432C26.1232 24.562 25.968 24.6503 25.7993 24.7018C25.6403 24.7503 25.4731 24.7649 25.3084 24.7449C23.8655 24.7365 22.2157 24.0559 20.773 23.2516C19.3089 22.4354 17.9983 21.4573 17.2335 20.8009L17.222 20.791L17.2113 20.7803C15.0263 18.5941 13.6237 15.7476 13.2208 12.6824C13.1956 12.5086 13.209 12.3314 13.2602 12.1635C13.3117 11.9947 13.3999 11.8394 13.5186 11.7088C13.6312 11.5841 13.769 11.4847 13.9227 11.417C14.0763 11.3494 14.2424 11.315 14.4101 11.316H16.7883C17.062 11.3105 17.3292 11.3995 17.5451 11.568C17.7624 11.7375 17.9142 11.9772 17.9748 12.2462L17.9845 12.2893V12.3335C17.9845 12.445 18.01 12.549 18.0462 12.6963C18.0607 12.7558 18.0771 12.8224 18.0942 12.8993L18.0943 12.8999C18.182 13.2975 18.2986 13.6882 18.4433 14.0688L18.5739 14.4125L17.1271 15.095L17.1253 15.0958C17.0296 15.1398 16.9552 15.2199 16.9185 15.3186L16.9162 15.3249L16.9137 15.331C16.8739 15.4279 16.8739 15.5365 16.9137 15.6333L16.9308 15.6751L16.9381 15.7195C16.9874 16.0175 17.1511 16.404 17.4396 16.8538C17.725 17.2987 18.1184 17.7837 18.5998 18.2761C19.559 19.257 20.8474 20.2457 22.2735 20.9879C22.3668 21.0223 22.4698 21.0205 22.562 20.9826L22.5682 20.9801L22.5744 20.9778C22.6727 20.9412 22.7525 20.8672 22.7965 20.7721L22.797 20.7709L23.4479 19.3237L23.7946 19.4502C24.1881 19.5938 24.5906 19.711 24.9996 19.8012L25.0015 19.8017L25.0034 19.8021C25.1971 19.8468 25.4088 19.8848 25.616 19.9155L25.6306 19.9177L25.645 19.9209C25.9139 19.9815 26.1534 20.1334 26.3229 20.3508C26.49 20.5652 26.5788 20.8301 26.5748 21.1016L26.6463 23.5552Z" fill="#FBFAF1"/>
</g>
<defs>
<filter id="filter0_d_308_1156" x="0" y="0" width="42.1053" height="42.1055" filterUnits="userSpaceOnUse" color-interpolation-filters="sRGB">
<feFlood flood-opacity="0" result="BackgroundImageFix"/>
<feColorMatrix in="SourceAlpha" type="matrix" values="0 0 0 0 0 0 0 0 0 0 0 0 0 0 0 0 0 0 127 0" result="hardAlpha"/>
<feOffset dy="4"/>
<feGaussianBlur stdDeviation="2"/>
<feComposite in2="hardAlpha" operator="out"/>
<feColorMatrix type="matrix" values="0 0 0 0 0 0 0 0 0 0 0 0 0 0 0 0 0 0 0.25 0"/>
<feBlend mode="normal" in2="BackgroundImageFix" result="effect1_dropShadow_308_1156"/>
<feBlend mode="normal" in="SourceGraphic" in2="effect1_dropShadow_308_1156" result="shape"/>
</filter>
</defs>
</svg>
