<svg width="35" height="35" viewBox="0 0 35 35" fill="none" xmlns="http://www.w3.org/2000/svg">
<path fill-rule="evenodd" clip-rule="evenodd" d="M17.0526 34.1053C26.4705 34.1053 34.1053 26.4705 34.1053 17.0526C34.1053 7.6348 26.4705 0 17.0526 0C7.6348 0 0 7.6348 0 17.0526C0 26.4705 7.6348 34.1053 17.0526 34.1053ZM24.5479 10.8946C24.6796 9.40077 23.1019 10.016 23.1019 10.016C21.9372 10.4983 20.736 10.988 19.5219 11.4832C15.7566 13.019 11.8673 14.6056 8.55394 16.1673C6.75728 16.8262 7.80908 17.4851 7.80908 17.4851L10.6572 18.364C11.972 18.7596 12.6728 18.32 12.6728 18.32L18.8077 14.1462C20.9986 12.6524 20.4727 13.8825 19.9468 14.4098L15.346 18.8033C14.6448 19.4185 14.9954 19.9458 15.302 20.2094C16.1717 20.9764 18.3101 22.3799 19.2436 22.9924C19.4864 23.1517 19.6477 23.2577 19.6842 23.285C19.9032 23.4607 21.0863 24.2516 21.8751 24.0759C22.664 23.8999 22.7516 22.8894 22.7516 22.8894L23.8031 15.9913C23.9607 14.7938 24.1418 13.6428 24.2864 12.7233C24.4228 11.855 24.5268 11.1937 24.5479 10.8946Z" fill="#FBFAF1"/>
</svg>
