<svg width="35" height="35" viewBox="0 0 35 35" fill="none" xmlns="http://www.w3.org/2000/svg">
<path fill-rule="evenodd" clip-rule="evenodd" d="M17.0526 34.1053C26.4705 34.1053 34.1053 26.4705 34.1053 17.0526C34.1053 7.63474 26.4705 0 17.0526 0C7.63474 0 0 7.63474 0 17.0526C0 26.4705 7.63474 34.1053 17.0526 34.1053ZM23.7927 9.88807C22.0379 8.13104 19.7039 7.16303 17.2174 7.16211C12.0943 7.16211 7.92422 11.3315 7.92238 16.4565C7.92177 18.0948 8.34975 19.6939 9.16299 21.1033L7.84421 25.92L12.7716 24.6276C14.1292 25.3682 15.658 25.7584 17.2134 25.759H17.2171C22.3399 25.759 26.51 21.589 26.5122 16.4643C26.5137 13.9803 25.5479 11.6451 23.7927 9.88807ZM21.4551 18.4028C21.2228 18.2865 20.0811 17.7248 19.8681 17.6473C19.6553 17.5697 19.5002 17.5309 19.3455 17.7636C19.1907 17.9962 18.7456 18.5191 18.6101 18.6742C18.4746 18.8292 18.339 18.8485 18.107 18.7322C18.069 18.7132 18.0172 18.6907 17.9533 18.663C17.6262 18.5211 16.9812 18.2414 16.2393 17.5793C15.5488 16.9633 15.0827 16.2029 14.9471 15.9705C14.8116 15.7379 14.9325 15.6123 15.0489 15.4966C15.1186 15.4271 15.1987 15.3296 15.2787 15.2321C15.3186 15.1835 15.3586 15.1348 15.3972 15.0897C15.4956 14.9748 15.5384 14.8875 15.5964 14.7693C15.6068 14.748 15.6177 14.7258 15.6295 14.7023C15.707 14.5473 15.6683 14.4117 15.6103 14.2954C15.5715 14.2177 15.3514 13.6819 15.1518 13.1961C15.0525 12.9545 14.9584 12.7253 14.8941 12.5709C14.7276 12.1711 14.559 12.1722 14.4236 12.173C14.4056 12.1731 14.3882 12.1732 14.3715 12.1724C14.2363 12.1656 14.0812 12.1643 13.9264 12.1643C13.7716 12.1643 13.5201 12.2223 13.307 12.4549C13.2933 12.4699 13.278 12.4863 13.2613 12.5041C13.0193 12.7625 12.4941 13.3232 12.4941 14.3925C12.4941 15.5329 13.3222 16.6348 13.4417 16.7938L13.4426 16.7949C13.4501 16.805 13.4636 16.8244 13.4829 16.8521C13.7602 17.2498 15.2319 19.3613 17.4101 20.3019C17.9643 20.5413 18.3967 20.684 18.7341 20.791C19.2906 20.9678 19.7967 20.943 20.1971 20.8831C20.6434 20.8164 21.5711 20.3214 21.7647 19.7789C21.9582 19.2365 21.9582 18.7713 21.9002 18.6745C21.8534 18.5962 21.7436 18.5431 21.581 18.4644C21.542 18.4456 21.5 18.4253 21.4551 18.4028Z" fill="#FBFAF1"/>
</svg>
