<svg width="52" height="43" viewBox="0 0 52 43" fill="none" xmlns="http://www.w3.org/2000/svg">
<path fill-rule="evenodd" clip-rule="evenodd" d="M20.5716 0.0333675C20.2151 0.161171 19.7648 0.729418 19.3579 1.56474C19.1641 1.96255 18.9784 2.41202 18.941 2.57372L18.9217 2.65708L18.9963 2.55837C19.0373 2.5041 19.1952 2.2486 19.3472 1.99061C19.4992 1.73262 19.6831 1.44717 19.7558 1.35631C20.5385 0.378432 21.4385 1.51659 25.1143 8.13315C25.4877 8.80508 25.9773 9.6847 26.2025 10.0879C26.4277 10.491 26.6205 10.8435 26.631 10.8712C26.6475 10.9148 26.6315 10.9215 26.5112 10.9218C26.4349 10.922 25.8452 10.9477 25.2008 10.979C24.5564 11.0103 23.9553 11.036 23.8649 11.0362L23.7006 11.0365V10.9423C23.7006 10.6639 23.4432 9.4516 23.1164 8.19064C22.5125 5.86019 22.1014 4.61237 21.587 3.5482C21.1648 2.67487 20.7755 2.21152 20.4638 2.21152C20.3499 2.21152 20.1061 2.35393 19.9871 2.48984C19.8505 2.64601 19.6034 3.06179 19.6257 3.09807C19.6345 3.1123 19.6811 3.1319 19.7294 3.14162C19.7824 3.15228 19.8778 3.22024 19.9701 3.31314C20.6648 4.01193 21.0835 6.52652 21.2418 10.9502C21.258 11.4008 21.2784 11.908 21.2872 12.0773L21.3031 12.3851L21.1517 12.4277C20.1412 12.7121 19.4772 12.9256 18.0455 13.4267C17.5991 13.5829 17.23 13.7068 17.2252 13.702C17.2204 13.6972 17.6649 11.249 18.2129 8.26141C18.7609 5.27389 19.2061 2.82628 19.2021 2.82225C19.1981 2.81823 19.1575 2.83326 19.1117 2.85566C19.0659 2.87805 18.8291 2.97711 18.5855 3.07579C15.9497 4.14344 13.443 5.82699 11.3559 7.93127C7.8429 11.4732 5.59719 16.0739 4.94318 21.0687C4.79025 22.2368 4.77044 22.5875 4.77044 24.1302C4.77044 25.6341 4.78896 25.9804 4.92798 27.0766C5.41231 30.8959 6.81821 34.4798 9.0658 37.6249C9.16127 37.7585 9.23508 37.8721 9.22985 37.8774C9.2246 37.8826 8.87463 37.9644 8.45211 38.059C5.82549 38.6473 2.93171 39.4839 0.403017 40.386C-0.0295335 40.5403 -0.125948 40.5956 0.172468 40.5182C0.942441 40.3184 3.32111 39.8071 4.66317 39.5527C7.10236 39.0904 10.5329 38.5823 11.856 38.4874C12.9478 38.4092 14.258 38.6304 15.5279 39.1074C16.6138 39.5153 17.457 39.9509 19.4428 41.1298C21.4823 42.3406 22.359 42.7143 23.1595 42.7143C23.6674 42.7143 24.0402 42.5656 24.4048 42.2178C24.7375 41.9002 24.9763 41.5166 25.2588 40.8458C25.3487 40.6324 25.4736 40.3543 25.5364 40.2278C26.0824 39.1282 26.8964 38.546 27.8869 38.5468C28.4236 38.5472 28.7894 38.6871 29.1185 39.0178C29.558 39.4594 29.7013 40.0158 29.7017 41.2831C29.7019 41.9571 29.7292 42.2003 29.8265 42.3968C29.9964 42.7401 30.4244 42.7444 30.916 42.4078C31.5323 41.9858 32.0459 41.2612 32.3405 40.398C32.532 39.837 32.6734 39.1034 32.6734 38.6704V38.4804L32.9062 38.5C33.2692 38.5304 34.8242 38.732 35.817 38.8773C41.0353 39.6409 46.4507 40.9294 51.2742 42.5549C51.6267 42.6738 51.9194 42.7668 51.9244 42.7616C51.937 42.749 50.5762 42.1343 49.8352 41.8178C48.5108 41.2521 47.096 40.7017 45.6773 40.2002C44.8693 39.9146 43.1475 39.3511 43.0828 39.3511C43.0157 39.3511 43.045 39.3004 43.2515 39.0596C44.1537 38.0077 45.0529 36.7147 45.7678 35.4416C46.1299 34.7968 46.1789 34.6569 45.847 35.2151C45.1111 36.4532 44.0486 37.8454 43.0138 38.9277L42.7177 39.2374L42.432 39.15C42.2748 39.102 41.7476 38.9523 41.2604 38.8174C38.7387 38.1189 36.0408 37.5434 33.5306 37.1685C33.0984 37.1039 32.6994 37.0441 32.644 37.0354C32.5432 37.0197 32.5431 37.0197 32.4765 36.7553C32.4398 36.6099 32.3518 36.3421 32.2809 36.1603C32.0579 35.5885 31.8976 35.2979 31.4885 34.723C31.1845 34.2959 31.0596 34.0597 31.0298 33.8556L31.0101 33.7212L31.3917 33.601C32.5565 33.2342 34.0216 32.5991 34.988 32.0421C36.237 31.3223 37.2031 30.4609 37.5609 29.7478C37.6058 29.6583 37.6842 29.5498 37.7352 29.5067C38.0144 29.2704 39.8714 28.4965 41.2009 28.0623C41.4694 27.9747 41.7053 27.8984 41.7253 27.8929C41.7504 27.886 41.7223 27.804 41.6349 27.6289C41.191 26.7398 40.7775 25.4902 40.5486 24.3458C40.1747 22.4771 40.1324 20.3448 40.4198 17.8492C40.5479 16.7368 40.715 15.6541 41.0745 13.6092C41.3599 11.9853 41.5666 10.7184 41.6596 10.023C41.7397 9.42447 41.8462 8.42003 41.8462 8.26317C41.8462 8.20746 41.8585 8.16189 41.8736 8.16189C41.9186 8.16189 43.2406 9.49944 43.564 9.87227C44.3418 10.7688 44.9476 11.5713 45.5223 12.4666C45.672 12.6998 45.8014 12.897 45.8099 12.9049C45.8911 12.9801 45.2786 11.96 44.8951 11.3814C44.088 10.1635 43.2779 9.15503 42.2858 8.13315C41.9589 7.79642 41.8081 7.61929 41.766 7.5225C41.6914 7.35103 41.583 7.24879 41.4498 7.22415C41.3737 7.21009 41.2623 7.1309 41.0318 6.92718C37.5268 3.82939 33.2317 1.96779 28.6299 1.55186C26.7346 1.38057 24.7049 1.47531 22.839 1.82213C22.6303 1.86091 22.4583 1.89 22.4565 1.88678C22.4348 1.84593 21.9653 1.16739 21.8491 1.00897C21.5987 0.667528 21.2869 0.301853 21.1532 0.192935C20.9187 0.00174716 20.772 -0.0384969 20.5716 0.0333675ZM26.6383 2.67163C25.9504 2.70488 25.2576 2.77198 24.5579 2.87316C23.9413 2.9623 23.283 3.08194 23.2552 3.10988C23.2462 3.11897 23.4249 3.43474 23.6523 3.8116C23.8797 4.18848 24.3583 4.99483 24.7158 5.60352C26.6604 8.91475 27.2745 9.90216 27.7919 10.5502C28.1188 10.9595 28.1051 10.9523 28.7585 11.0592C29.065 11.1093 29.7143 11.2206 30.2016 11.3066C32.0056 11.6249 32.707 11.7085 33.5878 11.7105C34.3075 11.7121 34.4849 11.6899 34.7451 11.5658C34.8954 11.4942 35.3348 11.117 36.3042 10.2275C37.6239 9.01665 38.458 8.33937 39.2601 7.82735C39.5895 7.61708 39.9322 7.42922 39.8437 7.50753C39.8032 7.54331 39.6039 7.71487 39.4008 7.88872C38.1187 8.98607 36.2073 10.872 34.9215 12.3082C34.5406 12.7337 34.4514 12.8187 34.3861 12.8187C34.2773 12.8187 33.0841 12.6489 31.6589 12.4305C29.4238 12.088 28.7805 12.012 27.6293 11.9542C26.4355 11.8943 24.9422 11.9788 23.2434 12.2023C22.5546 12.2929 22.4792 12.313 22.7147 12.3428C22.9114 12.3677 23.29 12.482 23.4577 12.5672C23.6548 12.6672 23.8209 12.7986 23.7797 12.8219C23.7593 12.8333 23.3056 12.9546 22.7715 13.0914C21.2793 13.4735 20.3601 13.7539 19.4285 14.1112C19.1928 14.2017 18.8134 14.3446 18.5855 14.4288C17.6923 14.7587 16.7281 15.2093 16.7281 15.2966C16.7281 15.3042 17.0513 15.3193 17.4463 15.3301C18.1259 15.3487 18.7719 15.408 18.8649 15.4603C18.937 15.5009 18.7067 15.6531 17.0977 16.6286C14.4233 18.25 13.1802 19.101 12.0964 20.0525C11.6392 20.4538 11.0987 21.048 11.0987 21.1492C11.0987 21.1721 11.3235 21.1817 11.8774 21.1825C13.0423 21.1842 13.8145 21.2641 14.3545 21.4388C14.5948 21.5165 14.8903 21.6623 14.8631 21.6897C14.8564 21.6964 14.7171 21.6871 14.5536 21.6691C14.009 21.609 13.2763 21.6716 12.5621 21.8391L12.3539 21.888L12.8336 22.144C13.9908 22.7614 16.7999 24.3922 17.4425 24.8196C18.9405 25.8161 21.2318 27.7841 22.3366 29.0235C22.5025 29.2096 23.3253 30.2239 24.165 31.2774C25.9988 33.5782 26.9829 34.6935 27.3916 34.9345L27.5234 35.0122L28.7944 34.0699C29.4935 33.5516 30.0611 33.1197 30.0557 33.1101C30.0503 33.1004 29.9021 33.0115 29.7263 32.9125C28.8879 32.4401 28.2284 31.8811 27.3352 30.8854C26.649 30.1205 25.9028 29.1508 25.9336 29.0641C25.9392 29.0484 26.3681 29.4105 26.8868 29.8688C28.249 31.0727 28.5605 31.3162 29.0645 31.5712C29.5017 31.7924 30.3206 32.0963 30.8731 32.2422C31.2155 32.3326 31.3107 32.3457 31.7204 32.3586C32.2771 32.3762 32.6115 32.3294 33.1034 32.1655C33.6042 31.9986 34.2576 31.6745 34.5132 31.4664L34.5956 31.3993L34.575 31.1507L34.5544 30.9022L34.4474 30.9702C34.278 31.0777 33.7777 31.3245 33.5681 31.4039C32.9048 31.655 32.2151 31.6939 31.565 31.5168C30.6617 31.2707 29.9045 30.9684 29.3756 30.6428C29.2751 30.5809 28.9247 30.3721 28.597 30.1789C27.8306 29.727 27.7144 29.6477 26.8582 28.9931C24.8933 27.4909 24.4179 27.0674 22.8851 25.4545C21.1992 23.6806 20.0361 22.8447 19.0549 22.702C18.8309 22.6694 18.5651 22.6906 18.4007 22.754C18.338 22.7782 18.3421 22.579 18.407 22.4491C18.599 22.0647 19.1968 22.1177 20.2116 22.6092C21.3227 23.1472 22.0902 23.7427 23.9863 25.5374C25.6592 27.1208 26.2065 27.5902 27.1868 28.282C28.5337 29.2326 30.1141 30.0948 31.2248 30.485C31.716 30.6576 32.0514 30.7294 32.4448 30.7464C32.8724 30.7649 33.1192 30.7211 33.4252 30.5724C33.6465 30.4648 33.9699 30.2126 34.0726 30.0676L34.136 29.978L33.8833 29.7036C33.4761 29.2615 33.2449 28.9268 33.2449 28.7795C33.2449 28.6772 33.5271 28.2655 33.7279 28.075C33.9739 27.8415 34.2588 27.6969 34.6245 27.62C34.9516 27.5512 35.2583 27.5507 35.7738 27.6181C35.9939 27.6469 36.1779 27.6676 36.1828 27.664C36.1969 27.6538 35.9435 27.1562 35.7231 26.7613C34.6353 24.8119 34.0148 22.6278 34.0856 20.9969C34.1694 19.0653 34.4205 18.1096 35.0661 17.2656C35.3508 16.8934 35.9304 16.3819 36.3437 16.1383C36.4838 16.0557 36.4754 16.0886 36.5312 15.4058C36.5991 14.5763 36.7095 14.1097 37.0332 13.2835C37.494 12.1075 38.6673 9.94497 39.3334 9.04373C39.5757 8.716 40.4621 7.76572 40.7458 7.52966C40.8995 7.40177 40.9247 7.36877 40.8957 7.33361C40.8384 7.26419 39.9162 6.57803 39.5242 6.31325C36.3857 4.19294 32.8427 2.96889 29.0728 2.70235C28.4642 2.65935 27.218 2.6436 26.6383 2.67163ZM17.7997 5.05307C13.1101 7.48807 9.45557 11.6432 7.60172 16.6479C5.83769 21.4103 5.83769 26.7926 7.60172 31.5549C8.17678 33.1074 8.98647 34.6952 9.89698 36.056C10.1566 36.4439 10.6754 37.1596 10.9176 37.4638L10.9794 37.5414L11.5412 37.4392C12.3611 37.29 13.229 37.0567 14.2041 36.7233C15.9419 36.1291 17.0743 35.4782 17.3826 34.8964C17.5077 34.6603 17.5752 34.2839 17.628 33.5293C17.6789 32.8007 17.7256 32.5395 17.8542 32.2652C17.9701 32.0179 18.1145 31.8402 18.357 31.6463C18.4591 31.5647 18.5599 31.4813 18.581 31.4611C18.6129 31.4305 18.5804 31.3444 18.3897 30.9536C18.2634 30.6948 17.9978 30.0899 17.7995 29.6095C17.6012 29.129 17.3492 28.5426 17.2395 28.3063C17.1298 28.07 16.8726 27.4735 16.6679 26.9808C16.269 26.0208 15.9048 25.2381 15.7556 25.0199C15.6577 24.8768 15.3506 24.6611 14.5421 24.1679C12.3363 22.8223 10.2244 21.8086 9.48126 21.7388C9.3807 21.7293 9.29843 21.7132 9.29843 21.7029C9.29843 21.626 10.3521 20.4425 10.8693 19.9384C12.0447 18.7928 12.9914 18.075 15.0708 16.7527C15.8428 16.2617 16.4338 15.8475 16.4044 15.818C16.3963 15.8098 16.0267 15.7269 15.5832 15.6339C15.1397 15.5408 14.7704 15.4583 14.7626 15.4504C14.7232 15.4108 15.1672 14.9392 15.4666 14.7025C15.606 14.5924 15.6488 14.5393 15.6734 14.4457C16.3713 11.801 18.2157 5.15218 18.3436 4.8202C18.3543 4.79252 18.3584 4.77018 18.3528 4.77053C18.3472 4.77087 18.0983 4.89801 17.7997 5.05307ZM40.9005 8.96362C40.0648 9.29255 38.9296 11.2147 38.577 12.898C38.4262 13.6177 38.3936 14.0469 38.3642 15.6984C38.3536 16.2942 38.3385 16.788 38.3307 16.7958C38.3229 16.8037 38.2395 16.7837 38.1454 16.7515C37.5834 16.5591 36.7951 16.817 36.2256 17.3795C36.095 17.5085 35.9881 17.6267 35.9881 17.6421C35.9881 17.6575 36.0621 17.6401 36.1525 17.6034C36.655 17.3995 37.2101 17.2922 37.6777 17.3087C37.9603 17.3186 38.0302 17.3308 38.1462 17.3909C38.317 17.4793 38.3908 17.5772 38.409 17.7396L38.4232 17.8666L38.2218 17.96C38.1093 18.0122 37.8715 18.0844 37.683 18.1237C37.1682 18.2309 37.0224 18.276 36.774 18.405C36.375 18.6121 36.031 19.0021 35.6748 19.6509C35.5182 19.9361 35.4844 20.0282 35.3742 20.4702C35.2258 21.0654 35.1076 21.7486 35.083 22.1536C35.0731 22.3158 35.0714 22.4485 35.0791 22.4485C35.0868 22.4485 35.2095 22.3083 35.3519 22.1369C36.0752 21.2657 36.9447 20.4847 37.5598 20.1535C37.8957 19.9726 38.1081 19.9115 38.3567 19.9241C38.5665 19.9347 38.5684 19.9356 38.6871 20.0675C38.7724 20.1622 38.8503 20.306 38.9594 20.5698C39.1104 20.9352 39.3376 21.414 39.4411 21.5852C39.4935 21.672 39.4944 21.6375 39.4916 19.6392C39.4886 17.5399 39.4994 17.2366 39.6194 16.0411C39.7707 14.5351 40.1078 12.8107 40.6163 10.9426C40.9079 9.87155 41.1154 8.90681 41.0535 8.91064C41.0416 8.91138 40.9727 8.93521 40.9005 8.96362ZM45.8468 12.9912C45.8636 13.0228 45.8838 13.0487 45.8916 13.0487C45.8995 13.0487 45.8922 13.0228 45.8753 12.9912C45.8585 12.9596 45.8383 12.9337 45.8305 12.9337C45.8226 12.9337 45.8299 12.9596 45.8468 12.9912ZM26.7821 13.7093C26.4261 13.7542 25.9733 13.8528 25.6009 13.9662C25.2584 14.0706 24.8779 14.2198 25.0436 14.1847C25.0829 14.1763 25.3337 14.1613 25.6009 14.1512C26.8547 14.1039 27.7054 14.3988 28.4297 15.132C28.5712 15.2753 28.7921 15.541 28.9205 15.7226C29.3099 16.273 29.6867 16.6721 30.1873 17.0641C30.7987 17.543 31.5542 17.8361 31.921 17.7368C32.031 17.707 32.2161 17.5436 32.2161 17.4763C32.2161 17.462 32.0155 17.2523 31.7703 17.0102C31.4949 16.7383 31.2255 16.4382 31.0655 16.2251C30.923 16.0354 30.6153 15.6251 30.3817 15.3133C30.1481 15.0015 29.8551 14.644 29.7306 14.5187C29.3505 14.1363 28.9628 13.9121 28.4445 13.7747C28.2035 13.7109 28.1046 13.7017 27.5726 13.694C27.2425 13.6892 26.8868 13.6961 26.7821 13.7093ZM26.9582 16.2919C26.5038 16.445 26.1428 16.7261 25.752 17.2307C25.4039 17.6803 25.0793 18.2958 24.9732 18.7076C24.9491 18.8013 24.9293 18.8866 24.9293 18.8971C24.9293 18.9076 24.9943 18.8798 25.0737 18.8354C25.2026 18.7633 25.2297 18.7301 25.3265 18.5247C25.5758 17.9963 26.1117 17.4701 26.6243 17.2506C26.7753 17.1859 26.8427 17.1748 27.0868 17.1743C27.3509 17.1738 27.3845 17.1802 27.5297 17.2599C28.0127 17.5249 28.6875 18.3987 29.2168 19.4446C29.4879 19.9803 29.5577 20.1903 29.6988 20.8963C29.8831 21.8179 29.9902 22.1908 30.0453 22.1031C30.0809 22.0464 30.0803 21.2003 30.0443 20.7352C29.9989 20.1493 29.9037 19.3551 29.8419 19.0472C29.7653 18.6654 29.5864 18.1272 29.446 17.8563C29.1175 17.2224 28.407 16.5275 27.8786 16.3234C27.6472 16.234 27.1778 16.218 26.9582 16.2919ZM24.0726 19.2049L23.916 19.2355L24.1726 19.328C24.4796 19.4387 24.4921 19.4449 25.1377 19.8123C25.4782 20.006 25.6412 20.1141 25.6314 20.1397C25.6234 20.1608 25.5892 20.3233 25.5554 20.5009C25.5083 20.7485 25.4972 20.891 25.5078 21.1116C25.5256 21.4813 25.5831 21.6352 25.8331 21.9821L25.8802 22.0475L25.7424 21.988C25.5906 21.9226 25.2927 21.7168 25.1963 21.6108C25.1624 21.5735 25.0676 21.446 24.9857 21.3275L24.8367 21.1119L24.8542 21.2556C24.8921 21.5679 25.202 22.0592 25.6371 22.4969C26.6059 23.4715 27.4702 23.5908 28.2495 22.8575L28.3872 22.728L28.5508 22.8373C28.7566 22.9747 29.2577 23.461 29.4745 23.7336C29.6567 23.9626 29.6729 23.9593 29.6729 23.6937C29.6729 23.2676 29.1925 22.3037 28.5603 21.4613C27.8631 20.5323 26.4061 19.5849 25.1865 19.2678C24.8733 19.1864 24.3256 19.1555 24.0726 19.2049ZM37.817 21.024C37.6576 21.0836 37.4982 21.1885 37.5137 21.2235C37.6669 21.5682 37.6841 21.6362 37.6961 21.9455C37.7044 22.1617 37.695 22.3185 37.6664 22.4414C37.6434 22.5402 37.6316 22.621 37.6401 22.621C37.6487 22.621 37.6928 22.579 37.7382 22.5276L37.8207 22.4342L37.8042 22.5772C37.7836 22.7559 37.6501 23.0468 37.4973 23.246C37.1849 23.6534 36.5956 23.9353 35.7319 24.0906C35.5506 24.1231 35.3999 24.1522 35.3969 24.1551C35.3859 24.1656 35.6998 24.8883 35.8794 25.2656C35.9809 25.4791 36.3192 26.1388 36.6312 26.7317C37.1474 27.7128 37.429 28.2766 37.6698 28.8109L37.7572 29.0047L37.9235 28.9203C38.339 28.7093 40.075 28.0518 40.6924 27.8715L41.0104 27.7786L40.81 27.3342C40.6997 27.0897 40.2759 26.133 39.8682 25.2081C39.1918 23.6739 39.0918 23.4258 38.7271 22.3769C38.5073 21.7446 38.3029 21.1874 38.2729 21.1386C38.1802 20.9877 38.021 20.9477 37.817 21.024ZM27.0334 21.4496C26.9919 21.6053 27.0151 21.8897 27.0797 22.0168C27.2082 22.2698 27.408 22.3246 27.6601 22.1759L27.7939 22.0971L27.4408 21.741C27.2466 21.5452 27.0793 21.3849 27.0692 21.3849C27.059 21.3849 27.0429 21.4141 27.0334 21.4496ZM35.7623 22.5241C35.6389 22.6651 35.583 22.8074 35.6087 22.915C35.6336 23.0185 35.7611 23.1367 35.8842 23.17C36.0153 23.2055 36.1989 23.1804 36.1807 23.1295C36.174 23.1107 36.1133 22.9368 36.0458 22.7432C35.9784 22.5495 35.9132 22.3911 35.901 22.3911C35.8887 22.3911 35.8263 22.4509 35.7623 22.5241ZM18.2272 27.3281C18.6635 28.367 19.469 30.0447 19.9075 30.8279C21.8084 34.2233 23.9248 36.3529 26.5296 37.4915C26.8782 37.6438 27.6433 37.9241 27.6612 37.9061C27.6732 37.8941 29.2045 35.2756 29.3294 35.0536L29.4264 34.8811L28.9567 35.3265C28.3556 35.8965 27.5352 36.7168 27.4213 36.8619L27.333 36.9742L27.1721 36.8762C26.7247 36.6039 26.1369 36.0869 25.5736 35.4704C24.8783 34.7096 24.4272 34.1558 22.986 32.294C20.8291 29.5076 19.94 28.4903 18.9524 27.679C18.6796 27.4549 18.1902 27.1054 18.1492 27.1054C18.1406 27.1054 18.1757 27.2056 18.2272 27.3281ZM34.6276 28.1665C34.4351 28.2362 34.2517 28.3461 34.0923 28.4873C33.9059 28.6523 33.9033 28.6859 34.0651 28.8397L34.2016 28.9695L34.2383 28.8431C34.2842 28.6844 34.5039 28.3936 34.6986 28.2336C34.8617 28.0996 34.8479 28.0867 34.6276 28.1665ZM36.5882 29.5646C36.4105 29.8123 35.9049 30.1149 35.3881 30.2828C35.2545 30.3262 35.1363 30.3696 35.1254 30.3792C35.1146 30.3889 35.1238 30.5326 35.146 30.6986C35.1681 30.8646 35.1866 31.0118 35.1871 31.0257C35.1889 31.0764 35.437 31.0097 35.663 30.8975C36.0617 30.6998 36.5532 30.2416 36.7221 29.9103C36.7882 29.7806 36.7911 29.7596 36.7576 29.6574C36.6945 29.4652 36.6694 29.4514 36.5882 29.5646ZM19.0399 32.3368C18.9093 32.4062 18.7661 32.5698 18.7 32.7248C18.6096 32.937 18.5866 33.1432 18.5877 33.7313C18.5901 35.0518 18.3159 35.7908 17.3469 37.0755C17.1402 37.3496 16.9137 37.6524 16.8436 37.7484L16.7162 37.9231L16.9293 38.1209C18.4409 39.524 19.4564 40.3381 20.4153 40.9154C21.2393 41.4115 21.9153 41.6507 22.4932 41.6507C22.991 41.6507 23.3294 41.506 23.7026 41.1334C24.0121 40.8245 24.137 40.6317 24.5858 39.7702C24.7852 39.3873 25.0101 38.9779 25.0855 38.8604C25.2623 38.5848 25.5862 38.2645 25.7786 38.1752C25.8604 38.1372 25.9214 38.0963 25.914 38.0843C25.8602 37.9967 25.2837 37.6679 24.0006 36.9932C21.8205 35.8467 20.8926 35.2705 20.0465 34.5381C19.617 34.1663 19.293 33.7551 19.1275 33.3719C19.0709 33.2409 19.059 33.1646 19.0581 32.9264C19.0572 32.6716 19.066 32.6197 19.1356 32.4702C19.1789 32.3773 19.2142 32.2965 19.2142 32.2905C19.2142 32.2651 19.1356 32.2859 19.0399 32.3368ZM29.7114 36.3244C29.2266 37.1262 28.8299 37.7934 28.8299 37.8072C28.8299 37.8209 28.9392 37.8678 29.0728 37.9113C29.6858 38.111 30.0875 38.4459 30.3342 38.963C30.6149 39.5514 30.6721 40.2575 30.5299 41.3776C30.5018 41.599 30.4833 41.7848 30.4888 41.7907C30.509 41.812 30.8549 41.4581 30.9907 41.277C31.2875 40.8812 31.5498 40.2547 31.6705 39.6529C31.9596 38.2124 31.6811 36.4431 30.9942 35.3554C30.8796 35.1739 30.6392 34.867 30.6115 34.8668C30.6013 34.8668 30.1962 35.5227 29.7114 36.3244ZM21.7031 36.7764C21.6653 36.797 21.6123 36.8079 21.5852 36.8008C21.5077 36.7804 21.3033 36.9007 21.1547 37.0541C21.0178 37.1955 20.9002 37.4405 20.9002 37.5843C20.9002 37.6559 20.9393 37.679 20.9716 37.6263C20.9813 37.6105 21.004 37.5976 21.022 37.5976C21.0399 37.5976 21.007 37.6466 20.9488 37.7066C20.8746 37.783 20.8432 37.841 20.8434 37.9006C20.844 38.0098 20.8788 38.064 20.9345 38.0424C20.9602 38.0325 20.9857 38.0443 20.9958 38.0709C21.0104 38.1091 21.0225 38.1105 21.0719 38.0797C21.1171 38.0515 21.1354 38.051 21.1518 38.0775C21.1787 38.1209 21.2238 38.0922 21.2712 38.0019C21.3038 37.9398 21.3006 37.9261 21.2427 37.8789L21.1775 37.8259L21.2356 37.762C21.3281 37.6603 21.3402 37.5802 21.2731 37.5128C21.2084 37.4477 21.2179 37.4383 21.3021 37.4836C21.3714 37.5209 21.3738 37.6327 21.3076 37.7453C21.2736 37.8033 21.2677 37.8364 21.2889 37.8503C21.306 37.8615 21.338 37.9089 21.3601 37.9557C21.3822 38.0025 21.462 38.0792 21.5376 38.1261L21.6749 38.2115L21.809 38.1631C21.9596 38.1088 22.0653 38.1024 22.1289 38.1437C22.1597 38.1637 22.1307 38.1717 22.0262 38.1721C21.8183 38.1727 21.782 38.2212 21.805 38.4683C21.822 38.6521 21.8256 38.6595 21.8901 38.6432C21.9332 38.6323 21.9575 38.6388 21.9575 38.6611C21.9575 38.6816 21.9767 38.6886 22.004 38.6781C22.0295 38.6682 22.0649 38.6721 22.0825 38.6866C22.1002 38.7012 22.1595 38.7107 22.2144 38.7078C22.3464 38.7009 22.3562 38.6369 22.2448 38.5092C22.1968 38.4542 22.1575 38.4014 22.1575 38.3918C22.1575 38.3822 22.2304 38.4213 22.3195 38.4787C22.5208 38.6082 22.7485 38.7019 22.9719 38.7471C23.0885 38.7707 23.2145 38.8273 23.3655 38.9241C23.987 39.3225 24.3881 39.3876 24.0149 39.0295C23.9363 38.9541 23.872 38.8847 23.872 38.8753C23.872 38.8477 23.7929 38.7761 23.7623 38.7761C23.7469 38.7761 23.7004 38.7357 23.6591 38.6863C23.6177 38.6369 23.577 38.6034 23.5685 38.612C23.5365 38.6442 23.628 38.7674 23.8041 38.9294C23.9964 39.1062 24.0331 39.1663 23.9151 39.1112C23.876 39.0929 23.8438 39.0618 23.8437 39.042C23.8436 39.0223 23.8242 39.0061 23.8006 39.0061C23.777 39.0061 23.7577 38.9871 23.7577 38.9639C23.7577 38.9382 23.741 38.9282 23.7149 38.9382C23.6877 38.9487 23.672 38.9378 23.672 38.9086C23.672 38.8832 23.6527 38.8624 23.6292 38.8624C23.6056 38.8624 23.5863 38.8461 23.5863 38.8261C23.5863 38.8061 23.5577 38.777 23.5227 38.7614C23.4602 38.7335 23.4375 38.6974 23.3468 38.4815C23.309 38.3918 23.2874 38.3737 23.2176 38.3737C23.1036 38.3737 23.0433 38.3471 23.0433 38.2967C23.0433 38.261 23.0502 38.2615 23.0882 38.2998C23.1156 38.3272 23.1828 38.345 23.2596 38.345C23.3625 38.345 23.4061 38.3629 23.4933 38.4408C23.6154 38.5498 23.6786 38.5806 23.8006 38.5905C23.8478 38.5944 23.8928 38.6009 23.9006 38.6051C23.9085 38.6093 23.9535 38.6159 24.0006 38.6197C24.0478 38.6236 24.0928 38.6294 24.1006 38.6327C24.1085 38.6359 24.1535 38.6408 24.2007 38.6435C24.2478 38.6463 24.2992 38.6563 24.315 38.6658C24.3582 38.6921 24.4721 38.6398 24.4721 38.5938C24.4721 38.5185 24.4128 38.4929 23.9649 38.3748C23.8926 38.3557 23.8435 38.3259 23.8435 38.3011C23.8435 38.2782 23.8 38.2412 23.7469 38.2189C23.6938 38.1966 23.6417 38.1641 23.631 38.1467C23.6202 38.1292 23.5633 38.115 23.5043 38.115C23.4454 38.115 23.3722 38.096 23.3417 38.0728C23.3112 38.0496 23.2644 38.0302 23.2376 38.0297C23.2109 38.0292 23.0887 37.9442 22.9662 37.8408C22.6971 37.6137 22.3769 37.4461 22.0893 37.3818C21.8466 37.3274 21.7684 37.2828 21.7948 37.2137C21.8216 37.1432 22.0427 37.1529 22.3914 37.2398C22.8957 37.3654 23.3481 37.3647 23.5128 37.2381C23.5863 37.1815 23.5706 37.1719 23.3729 37.1526C23.2804 37.1436 23.1892 37.1233 23.1705 37.1077C23.1517 37.092 23.1167 37.0867 23.0927 37.096C23.0688 37.1052 23.0406 37.099 23.0303 37.0821C23.0199 37.0652 22.9808 37.0514 22.9433 37.0514C22.9059 37.0514 22.8667 37.0374 22.8562 37.0203C22.8457 37.0032 22.8077 36.9967 22.7717 37.0057C22.7272 37.017 22.7008 37.0076 22.6888 36.9761C22.6767 36.9443 22.6481 36.9343 22.5978 36.9439C22.5514 36.9529 22.519 36.9435 22.5094 36.9185C22.5011 36.8967 22.4643 36.8789 22.4276 36.8789C22.3909 36.8789 22.353 36.866 22.3432 36.8502C22.3335 36.8344 22.295 36.8214 22.2575 36.8214C22.2201 36.8214 22.1812 36.808 22.1711 36.7915C22.161 36.7751 22.1274 36.7697 22.0966 36.7795C22.0657 36.7894 22.0233 36.7831 22.0024 36.7657C21.9769 36.7444 21.9411 36.7429 21.8931 36.7612C21.8534 36.7764 21.8107 36.7776 21.7968 36.7638C21.7828 36.7501 21.7414 36.7556 21.7031 36.7764ZM21.8042 36.8931C21.8132 36.9168 21.8321 36.9289 21.8462 36.9202C21.8865 36.8951 21.876 36.8502 21.8298 36.8502C21.8043 36.8502 21.7942 36.8671 21.8042 36.8931ZM21.9432 36.9077C21.9529 36.9235 21.9729 36.9364 21.9877 36.9364C22.0025 36.9364 22.0146 36.9235 22.0146 36.9077C22.0146 36.8919 21.9946 36.8789 21.9701 36.8789C21.9456 36.8789 21.9335 36.8919 21.9432 36.9077ZM21.5434 36.9369C21.5533 36.9529 21.5733 36.9587 21.588 36.9496C21.6276 36.9249 21.6202 36.9077 21.57 36.9077C21.5455 36.9077 21.5336 36.9208 21.5434 36.9369ZM21.676 36.935C21.6823 36.9539 21.6967 36.9685 21.7081 36.9673C21.7423 36.9637 21.7357 36.9243 21.6989 36.912C21.68 36.9057 21.6697 36.916 21.676 36.935ZM22.1003 36.9364C22.1003 36.9522 22.1132 36.9652 22.1289 36.9652C22.1446 36.9652 22.1575 36.9522 22.1575 36.9364C22.1575 36.9206 22.1446 36.9077 22.1289 36.9077C22.1132 36.9077 22.1003 36.9206 22.1003 36.9364ZM21.4002 37.0227C21.41 37.0385 21.43 37.0514 21.4448 37.0514C21.4596 37.0514 21.4717 37.0385 21.4717 37.0227C21.4717 37.0068 21.4516 36.9939 21.4271 36.9939C21.4026 36.9939 21.3905 37.0068 21.4002 37.0227ZM21.8577 37.0231C21.8676 37.0392 21.8877 37.0449 21.9023 37.0358C21.9419 37.0112 21.9346 36.9939 21.8843 36.9939C21.8599 36.9939 21.8479 37.007 21.8577 37.0231ZM21.5717 37.0514C21.5814 37.0672 21.6014 37.0801 21.6162 37.0801C21.6311 37.0801 21.6431 37.0672 21.6431 37.0514C21.6431 37.0356 21.6231 37.0227 21.5986 37.0227C21.5741 37.0227 21.562 37.0356 21.5717 37.0514ZM21.7289 37.0784C21.7289 37.0933 21.7417 37.1135 21.7574 37.1233C21.7732 37.133 21.786 37.1208 21.786 37.0962C21.786 37.0716 21.7732 37.0514 21.7574 37.0514C21.7417 37.0514 21.7289 37.0636 21.7289 37.0784ZM21.3145 37.1376C21.3242 37.1534 21.3443 37.1664 21.3591 37.1664C21.3739 37.1664 21.386 37.1534 21.386 37.1376C21.386 37.1218 21.3659 37.1089 21.3414 37.1089C21.3169 37.1089 21.3048 37.1218 21.3145 37.1376ZM21.486 37.1664C21.4957 37.1822 21.5157 37.1951 21.5305 37.1951C21.5453 37.1951 21.5574 37.1822 21.5574 37.1664C21.5574 37.1506 21.5374 37.1376 21.5129 37.1376C21.4884 37.1376 21.4763 37.1506 21.486 37.1664ZM21.6474 37.1937C21.6537 37.2127 21.6682 37.2272 21.6796 37.226C21.7138 37.2225 21.7071 37.1831 21.6703 37.1707C21.6514 37.1644 21.6411 37.1747 21.6474 37.1937ZM21.3145 37.2814C21.3242 37.2972 21.3443 37.3101 21.3591 37.3101C21.3739 37.3101 21.386 37.2972 21.386 37.2814C21.386 37.2656 21.3659 37.2526 21.3414 37.2526C21.3169 37.2526 21.3048 37.2656 21.3145 37.2814ZM21.486 37.3101C21.4957 37.3259 21.5157 37.3389 21.5305 37.3389C21.5453 37.3389 21.5574 37.3259 21.5574 37.3101C21.5574 37.2943 21.5374 37.2814 21.5129 37.2814C21.4884 37.2814 21.4763 37.2943 21.486 37.3101ZM21.6574 37.3389C21.6671 37.3547 21.6872 37.3676 21.702 37.3676C21.7168 37.3676 21.7289 37.3547 21.7289 37.3389C21.7289 37.323 21.7088 37.3101 21.6843 37.3101C21.6598 37.3101 21.6477 37.323 21.6574 37.3389ZM21.8432 37.3946C21.8432 37.4095 21.856 37.4297 21.8717 37.4395C21.8875 37.4492 21.9003 37.437 21.9003 37.4124C21.9003 37.3878 21.8875 37.3676 21.8717 37.3676C21.856 37.3676 21.8432 37.3798 21.8432 37.3946ZM21.3717 37.4251C21.3814 37.4409 21.4014 37.4538 21.4162 37.4538C21.431 37.4538 21.4431 37.4409 21.4431 37.4251C21.4431 37.4093 21.423 37.3963 21.3986 37.3963C21.3741 37.3963 21.362 37.4093 21.3717 37.4251ZM21.586 37.4538C21.586 37.4696 21.5988 37.4826 21.6146 37.4826C21.6303 37.4826 21.6431 37.4696 21.6431 37.4538C21.6431 37.438 21.6303 37.4251 21.6146 37.4251C21.5988 37.4251 21.586 37.438 21.586 37.4538ZM22.0292 37.4543C22.0391 37.4704 22.0591 37.4761 22.0737 37.467C22.1134 37.4423 22.106 37.4251 22.0558 37.4251C22.0313 37.4251 22.0193 37.4382 22.0292 37.4543ZM22.2043 37.4968C22.2133 37.5204 22.2321 37.5326 22.2462 37.5238C22.2866 37.4988 22.2761 37.4538 22.2298 37.4538C22.2043 37.4538 22.1943 37.4707 22.2043 37.4968ZM21.7432 37.5113C21.7529 37.5271 21.7729 37.5401 21.7877 37.5401C21.8025 37.5401 21.8146 37.5271 21.8146 37.5113C21.8146 37.4955 21.7945 37.4826 21.77 37.4826C21.7456 37.4826 21.7334 37.4955 21.7432 37.5113ZM21.476 37.5386C21.4823 37.5576 21.4967 37.5722 21.5081 37.571C21.5423 37.5674 21.5357 37.528 21.4988 37.5156C21.48 37.5093 21.4697 37.5197 21.476 37.5386ZM22.3618 37.5386C22.3681 37.5576 22.3826 37.5722 22.394 37.571C22.4281 37.5674 22.4215 37.528 22.3847 37.5156C22.3658 37.5093 22.3555 37.5197 22.3618 37.5386ZM21.9146 37.5688C21.9243 37.5846 21.9444 37.5976 21.9592 37.5976C21.974 37.5976 21.986 37.5846 21.986 37.5688C21.986 37.553 21.966 37.5401 21.9415 37.5401C21.917 37.5401 21.9049 37.553 21.9146 37.5688ZM22.1046 37.5961C22.1109 37.6151 22.1254 37.6296 22.1368 37.6285C22.171 37.6249 22.1643 37.5855 22.1275 37.5731C22.1086 37.5668 22.0984 37.5772 22.1046 37.5961ZM21.6574 37.6263C21.6671 37.6421 21.6872 37.6551 21.702 37.6551C21.7168 37.6551 21.7289 37.6421 21.7289 37.6263C21.7289 37.6105 21.7088 37.5976 21.6843 37.5976C21.6598 37.5976 21.6477 37.6105 21.6574 37.6263ZM22.529 37.6263C22.529 37.6421 22.5418 37.6551 22.5576 37.6551C22.5733 37.6551 22.5861 37.6421 22.5861 37.6263C22.5861 37.6105 22.5733 37.5976 22.5576 37.5976C22.5418 37.5976 22.529 37.6105 22.529 37.6263ZM22.2718 37.6543C22.2718 37.6932 22.3226 37.7174 22.3411 37.6873C22.35 37.6729 22.338 37.6537 22.3145 37.6446C22.291 37.6355 22.2718 37.6399 22.2718 37.6543ZM21.8328 37.698C21.8418 37.7216 21.8607 37.7338 21.8747 37.7251C21.9151 37.7 21.9046 37.6551 21.8583 37.6551C21.8329 37.6551 21.8228 37.6719 21.8328 37.698ZM22.0189 37.7111C22.0252 37.7301 22.0397 37.7446 22.0511 37.7435C22.0852 37.7399 22.0786 37.7005 22.0418 37.6881C22.0229 37.6818 22.0126 37.6921 22.0189 37.7111ZM22.6762 37.7111C22.6824 37.7301 22.6969 37.7446 22.7083 37.7435C22.7425 37.7399 22.7358 37.7005 22.699 37.6881C22.6802 37.6818 22.6699 37.6921 22.6762 37.7111ZM22.429 37.7413C22.4387 37.7571 22.4587 37.77 22.4735 37.77C22.4883 37.77 22.5004 37.7571 22.5004 37.7413C22.5004 37.7255 22.4803 37.7125 22.4559 37.7125C22.4314 37.7125 22.4193 37.7255 22.429 37.7413ZM22.1904 37.7686C22.2027 37.8057 22.2418 37.8123 22.2454 37.7779C22.2465 37.7665 22.2321 37.7519 22.2132 37.7456C22.1944 37.7393 22.1841 37.7496 22.1904 37.7686ZM22.5576 37.8097C22.5576 37.8156 22.5769 37.8366 22.6004 37.8563C22.6355 37.8856 22.6433 37.8836 22.6433 37.8454C22.6433 37.8198 22.624 37.7988 22.6004 37.7988C22.5769 37.7988 22.5576 37.8037 22.5576 37.8097ZM22.8005 37.8275C22.8102 37.8433 22.8302 37.8563 22.845 37.8563C22.8598 37.8563 22.8719 37.8433 22.8719 37.8275C22.8719 37.8117 22.8518 37.7988 22.8273 37.7988C22.8029 37.7988 22.7907 37.8117 22.8005 37.8275ZM22.3332 37.8548C22.3395 37.8738 22.354 37.8884 22.3654 37.8872C22.3996 37.8836 22.3929 37.8442 22.3561 37.8318C22.3372 37.8255 22.327 37.8359 22.3332 37.8548ZM22.4861 37.9425C22.4958 37.9583 22.5159 37.9713 22.5307 37.9713C22.5455 37.9713 22.5576 37.9583 22.5576 37.9425C22.5576 37.9267 22.5375 37.9138 22.513 37.9138C22.4885 37.9138 22.4764 37.9267 22.4861 37.9425ZM22.7147 37.9425C22.7244 37.9583 22.7445 37.9713 22.7593 37.9713C22.7741 37.9713 22.7862 37.9583 22.7862 37.9425C22.7862 37.9267 22.7661 37.9138 22.7416 37.9138C22.7171 37.9138 22.705 37.9267 22.7147 37.9425ZM22.619 38.0273C22.6253 38.0463 22.6397 38.0608 22.6511 38.0597C22.6853 38.0561 22.6787 38.0167 22.6419 38.0043C22.623 37.998 22.6127 38.0083 22.619 38.0273ZM22.8476 38.0273C22.8599 38.0644 22.8991 38.071 22.9026 38.0367C22.9038 38.0252 22.8893 38.0106 22.8705 38.0043C22.8516 37.998 22.8413 38.0083 22.8476 38.0273ZM23.5291 38.2269C23.5291 38.256 23.6162 38.2957 23.6361 38.2757C23.6433 38.2685 23.6407 38.2487 23.6303 38.2319C23.6075 38.1948 23.5291 38.1909 23.5291 38.2269ZM27.244 39.4437C26.9885 39.5337 26.8177 39.6401 26.6004 39.8446C26.1691 40.2505 25.9296 40.8085 25.9301 41.4064C25.9308 42.1868 26.3445 42.7854 27.0023 42.9578C27.5032 43.089 28.023 42.9122 28.4735 42.4573C28.7488 42.1793 28.9141 41.8974 29.0136 41.5362C29.0831 41.2839 29.1177 40.9265 29.0877 40.7702L29.0663 40.659L29.0262 40.8141C28.9004 41.3009 28.4785 41.6794 28.0617 41.6794C27.8001 41.6795 27.6785 41.63 27.499 41.4506C27.2509 41.2026 27.1671 40.8708 27.2561 40.4893C27.3169 40.2284 27.4203 40.0431 27.6008 39.8714C27.8065 39.6757 27.9569 39.6054 28.215 39.5842L28.4299 39.5667L28.2441 39.4815C28.0807 39.4065 28.0207 39.3952 27.7441 39.3873C27.4755 39.3796 27.4026 39.3878 27.244 39.4437Z" fill="#1C1A1B"/>
</svg>
