<svg width="43" height="36" viewBox="0 0 43 36" fill="none" xmlns="http://www.w3.org/2000/svg">
<path fill-rule="evenodd" clip-rule="evenodd" d="M16.9001 0.0272501C16.6073 0.131623 16.2373 0.59569 15.903 1.27787C15.7438 1.60275 15.5912 1.96982 15.5605 2.10187L15.5447 2.16995L15.6059 2.08933C15.6397 2.04501 15.7694 1.83636 15.8942 1.62566C16.0191 1.41497 16.1702 1.18185 16.2299 1.10765C16.8729 0.309052 17.6123 1.23855 20.6321 6.64206C20.9388 7.19081 21.3411 7.90916 21.5261 8.23841C21.7111 8.56766 21.8695 8.85552 21.8781 8.87812C21.8916 8.91374 21.8785 8.91923 21.7797 8.91946C21.7169 8.9196 21.2325 8.94062 20.7031 8.96616C20.1737 8.9917 19.6799 9.01271 19.6056 9.01285L19.4707 9.01311V8.93622C19.4707 8.70886 19.2592 7.7188 18.9908 6.68902C18.4946 4.78582 18.1569 3.76676 17.7343 2.89769C17.3875 2.18448 17.0676 1.80607 16.8115 1.80607C16.718 1.80607 16.5177 1.92237 16.42 2.03336C16.3077 2.16091 16.1047 2.50046 16.1231 2.53009C16.1302 2.54171 16.1686 2.55772 16.2082 2.56565C16.2518 2.57436 16.3301 2.62986 16.406 2.70573C16.9766 3.2764 17.3207 5.32998 17.4507 8.94268C17.464 9.31066 17.4807 9.72484 17.488 9.86309L17.5011 10.1144L17.3766 10.1493C16.5465 10.3815 16.001 10.5559 14.8248 10.9652C14.4581 11.0927 14.1549 11.1939 14.1509 11.19C14.147 11.1861 14.5122 9.18664 14.9624 6.74681C15.4126 4.30701 15.7783 2.30812 15.775 2.30484C15.7718 2.30155 15.7383 2.31383 15.7007 2.33212C15.6632 2.3504 15.4686 2.4313 15.2685 2.51189C13.1031 3.3838 11.0437 4.7587 9.32916 6.47719C6.44315 9.36975 4.59824 13.127 4.06095 17.2061C3.93531 18.1601 3.91904 18.4464 3.91904 19.7063C3.91904 20.9345 3.93426 21.2173 4.04846 22.1125C4.44635 25.2316 5.60133 28.1585 7.44779 30.7269C7.52622 30.836 7.58686 30.9288 7.58256 30.9332C7.57825 30.9375 7.29074 31.0042 6.94363 31.0815C4.78579 31.5619 2.40848 32.2451 0.331089 32.9818C-0.0242625 33.1078 -0.10347 33.153 0.141687 33.0898C0.774239 32.9267 2.72838 32.5091 3.83091 32.3013C5.83478 31.9238 8.65308 31.5088 9.73998 31.4314C10.637 31.3675 11.7133 31.5481 12.7566 31.9377C13.6487 32.2708 14.3414 32.6265 15.9728 33.5893C17.6483 34.5781 18.3685 34.8833 19.0261 34.8833C19.4434 34.8833 19.7497 34.7619 20.0491 34.4778C20.3225 34.2185 20.5187 33.9052 20.7508 33.3574C20.8246 33.1831 20.9272 32.956 20.9788 32.8527C21.4274 31.9546 22.0961 31.4792 22.9098 31.4799C23.3507 31.4802 23.6513 31.5944 23.9216 31.8645C24.2827 32.2252 24.4004 32.6796 24.4007 33.7145C24.4009 34.2649 24.4233 34.4635 24.5032 34.624C24.6428 34.9043 24.9944 34.9079 25.3983 34.633C25.9046 34.2883 26.3265 33.6966 26.5686 32.9916C26.7259 32.5335 26.842 31.9344 26.842 31.5808V31.4256L27.0333 31.4416C27.3315 31.4664 28.609 31.6311 29.4246 31.7497C33.7116 32.3734 38.1605 33.4256 42.1231 34.7532C42.4127 34.8502 42.6531 34.9262 42.6573 34.922C42.6676 34.9117 41.5497 34.4096 40.9409 34.1511C39.8529 33.6892 38.6906 33.2397 37.5251 32.8301C36.8613 32.5969 35.4468 32.1367 35.3937 32.1367C35.3385 32.1367 35.3626 32.0952 35.5323 31.8986C36.2734 31.0396 37.0122 29.9837 37.5995 28.944C37.897 28.4174 37.9371 28.3031 37.6645 28.759C37.06 29.7701 36.1871 30.9071 35.337 31.7909L35.0937 32.0438L34.859 31.9725C34.7299 31.9333 34.2967 31.811 33.8965 31.7008C31.8249 31.1304 29.6085 30.6604 27.5463 30.3542C27.1912 30.3015 26.8634 30.2526 26.8179 30.2456C26.7351 30.2328 26.735 30.2327 26.6803 30.0168C26.6502 29.898 26.5778 29.6793 26.5196 29.5309C26.3364 29.0639 26.2047 28.8266 25.8686 28.3571C25.6189 28.0083 25.5163 27.8154 25.4918 27.6487L25.4756 27.5389L25.7891 27.4408C26.746 27.1412 27.9496 26.6225 28.7435 26.1677C29.7696 25.5799 30.5633 24.8763 30.8573 24.294C30.8941 24.2209 30.9586 24.1323 31.0005 24.0971C31.2298 23.9041 32.7554 23.2721 33.8476 22.9175C34.0682 22.846 34.262 22.7837 34.2785 22.7792C34.299 22.7735 34.276 22.7065 34.2042 22.5636C33.8395 21.8375 33.4998 20.817 33.3117 19.8823C33.0046 18.3563 32.9698 16.6149 33.2059 14.5768C33.3111 13.6684 33.4485 12.7842 33.7438 11.1142C33.9782 9.78802 34.1481 8.75335 34.2245 8.18545C34.2903 7.69664 34.3777 6.87635 34.3777 6.74824C34.3777 6.70275 34.3879 6.66554 34.4003 6.66554C34.4373 6.66554 35.5233 7.75786 35.789 8.06234C36.4279 8.79448 36.9256 9.44992 37.3977 10.181C37.5207 10.3715 37.6271 10.5326 37.6341 10.539C37.7007 10.6004 37.1975 9.76736 36.8825 9.29482C36.2194 8.30017 35.5539 7.4766 34.7389 6.64206C34.4703 6.36707 34.3465 6.22241 34.3119 6.14337C34.2506 6.00334 34.1615 5.91983 34.0521 5.89972C33.9896 5.88824 33.898 5.82356 33.7087 5.65719C30.8293 3.12733 27.3007 1.60702 23.5202 1.26735C21.9632 1.12746 20.2957 1.20484 18.7628 1.48807C18.5914 1.51974 18.45 1.5435 18.4486 1.54087C18.4308 1.50751 18.045 0.953366 17.9496 0.823991C17.7439 0.545147 17.4877 0.246513 17.3779 0.157564C17.1852 0.00142684 17.0647 -0.0314391 16.9001 0.0272501ZM21.8841 2.18182C21.3189 2.20899 20.7498 2.26378 20.1749 2.34641C19.6684 2.41921 19.1276 2.51692 19.1048 2.53974C19.0974 2.54715 19.2441 2.80503 19.431 3.1128C19.6178 3.42059 20.011 4.07911 20.3047 4.5762C21.9022 7.28037 22.4067 8.08676 22.8318 8.61595C23.1003 8.95026 23.0891 8.94437 23.6259 9.03163C23.8776 9.07255 24.4111 9.16347 24.8114 9.23369C26.2934 9.49363 26.8697 9.56195 27.5932 9.56357C28.1845 9.56488 28.3302 9.54678 28.544 9.44541C28.6675 9.38689 29.0285 9.07884 29.8249 8.35243C30.909 7.36359 31.5942 6.81048 32.2532 6.39233C32.5238 6.2206 32.8054 6.06719 32.7326 6.13114C32.6993 6.16037 32.5356 6.30047 32.3688 6.44245C31.3155 7.33861 29.7453 8.87876 28.6889 10.0517C28.376 10.3992 28.3027 10.4686 28.2491 10.4686C28.1597 10.4686 27.1795 10.3299 26.0086 10.1516C24.1725 9.8719 23.6439 9.8098 22.6982 9.76262C21.7175 9.71367 20.4907 9.78264 19.095 9.96519C18.5292 10.0392 18.4673 10.0556 18.6607 10.0799C18.8223 10.1003 19.1333 10.1937 19.2711 10.2632C19.433 10.3449 19.5695 10.4522 19.5356 10.4712C19.5189 10.4805 19.1462 10.5796 18.7074 10.6913C17.4815 11.0033 16.7263 11.2323 15.961 11.5242C15.7674 11.598 15.4557 11.7147 15.2685 11.7835C14.5347 12.053 13.7426 12.4209 13.7426 12.4922C13.7426 12.4984 14.0081 12.5107 14.3326 12.5196C14.8909 12.5347 15.4216 12.5831 15.498 12.6259C15.5572 12.659 15.368 12.7833 14.0462 13.58C11.8491 14.9041 10.8278 15.5991 9.93748 16.3762C9.56189 16.7039 9.11788 17.1892 9.11788 17.2718C9.11788 17.2905 9.30256 17.2983 9.75759 17.299C10.7146 17.3004 11.3489 17.3657 11.7926 17.5083C11.99 17.5718 12.2327 17.6908 12.2104 17.7132C12.2049 17.7187 12.0905 17.7111 11.9562 17.6964C11.5088 17.6473 10.9069 17.6984 10.3201 17.8353L10.149 17.8752L10.5431 18.0842C11.4938 18.5884 13.8015 19.9203 14.3295 20.2693C15.5601 21.0831 17.4424 22.6903 18.3501 23.7025C18.4864 23.8545 19.1624 24.6828 19.8522 25.5432C21.3587 27.4221 22.1672 28.333 22.5029 28.5298L22.6112 28.5933L23.6554 27.8237C24.2297 27.4005 24.6959 27.0477 24.6915 27.0399C24.6871 27.032 24.5654 26.9594 24.421 26.8785C23.7321 26.4928 23.1904 26.0362 22.4566 25.2231C21.8929 24.5984 21.2798 23.8065 21.3051 23.7356C21.3097 23.7228 21.6621 24.0186 22.0882 24.3929C23.2073 25.376 23.4632 25.5749 23.8772 25.7831C24.2364 25.9638 24.9091 26.2119 25.3631 26.3311C25.6444 26.4049 25.7226 26.4156 26.0591 26.4262C26.5165 26.4405 26.7912 26.4023 27.1953 26.2684C27.6067 26.1321 28.1435 25.8675 28.3535 25.6975L28.4212 25.6427L28.4043 25.4397L28.3874 25.2368L28.2994 25.2923C28.1603 25.3801 27.7493 25.5816 27.577 25.6465C27.0322 25.8516 26.4656 25.8833 25.9315 25.7387C25.1894 25.5377 24.5673 25.2908 24.1328 25.0249C24.0502 24.9743 23.7624 24.8039 23.4932 24.6461C22.8635 24.277 22.7681 24.2123 22.0647 23.6777C20.4505 22.4508 20.0599 22.105 18.8007 20.7879C17.4157 19.3391 16.4602 18.6565 15.6541 18.54C15.4701 18.5133 15.2517 18.5306 15.1167 18.5824C15.0652 18.6022 15.0685 18.4395 15.1218 18.3334C15.2796 18.0195 15.7707 18.0627 16.6044 18.4641C17.5171 18.9036 18.1477 19.3898 19.7054 20.8555C21.0797 22.1486 21.5293 22.532 22.3347 23.097C23.4411 23.8733 24.7395 24.5774 25.652 24.8961C26.0555 25.037 26.331 25.0957 26.6542 25.1095C27.0055 25.1246 27.2083 25.0888 27.4596 24.9674C27.6415 24.8796 27.9072 24.6736 27.9915 24.5552L28.0436 24.482L27.836 24.2579C27.5015 23.8969 27.3115 23.6235 27.3115 23.5033C27.3115 23.4197 27.5434 23.0835 27.7083 22.9279C27.9104 22.7372 28.1445 22.6191 28.4449 22.5563C28.7136 22.5001 28.9656 22.4997 29.3891 22.5548C29.5699 22.5783 29.7211 22.5952 29.7251 22.5922C29.7367 22.5839 29.5285 22.1776 29.3475 21.855C28.4538 20.263 27.944 18.4793 28.0022 17.1474C28.071 15.57 28.2774 14.7895 28.8077 14.1002C29.0416 13.7963 29.5178 13.3786 29.8573 13.1796C29.9724 13.1122 29.9655 13.139 30.0114 12.5814C30.0671 11.9039 30.1578 11.5229 30.4237 10.8482C30.8023 9.88781 31.7662 8.12171 32.3134 7.3857C32.5125 7.11806 33.2407 6.342 33.4737 6.14922C33.6 6.04477 33.6207 6.01782 33.5969 5.98911C33.5498 5.93242 32.7922 5.37205 32.4702 5.15582C29.8918 3.42423 26.9812 2.42459 23.8841 2.20692C23.3841 2.1718 22.3603 2.15894 21.8841 2.18182ZM14.6229 4.12667C10.7703 6.11525 7.768 9.50856 6.24501 13.5958C4.79581 17.485 4.79581 21.8806 6.24501 25.7698C6.71744 27.0376 7.38262 28.3344 8.13063 29.4457C8.34388 29.7625 8.77013 30.347 8.96909 30.5954L9.01984 30.6588L9.48137 30.5753C10.155 30.4535 10.868 30.2629 11.669 29.9906C13.0967 29.5054 14.027 28.9738 14.2802 28.4987C14.383 28.3058 14.4385 27.9985 14.4819 27.3822C14.5237 26.7872 14.5621 26.5739 14.6677 26.3499C14.7629 26.1479 14.8815 26.0028 15.0808 25.8444C15.1647 25.7778 15.2475 25.7097 15.2648 25.6932C15.2909 25.6682 15.2643 25.5979 15.1076 25.2788C15.0038 25.0674 14.7857 24.5734 14.6227 24.181C14.4598 23.7887 14.2528 23.3098 14.1627 23.1168C14.0726 22.9238 13.8613 22.4367 13.6931 22.0343C13.3654 21.2503 13.0662 20.6111 12.9436 20.4329C12.8632 20.316 12.6109 20.1399 11.9467 19.7371C10.1346 18.6382 8.39961 17.8103 7.7891 17.7533C7.70649 17.7456 7.63891 17.7324 7.63891 17.724C7.63891 17.6612 8.5045 16.6947 8.92939 16.283C9.89506 15.3475 10.6727 14.7613 12.381 13.6813C13.0152 13.2804 13.5008 12.9421 13.4767 12.9181C13.47 12.9113 13.1664 12.8437 12.802 12.7677C12.4376 12.6917 12.1343 12.6242 12.1279 12.6178C12.0955 12.5855 12.4602 12.2003 12.7062 12.0071C12.8207 11.9171 12.8559 11.8737 12.8761 11.7973C13.4494 9.63744 14.9647 4.20761 15.0698 3.93649C15.0786 3.91388 15.0819 3.89564 15.0773 3.89593C15.0727 3.89621 14.8682 4.00004 14.6229 4.12667ZM33.6009 7.32028C32.9143 7.58891 31.9817 9.15868 31.692 10.5334C31.5681 11.1211 31.5414 11.4716 31.5172 12.8204C31.5085 13.3069 31.4961 13.7102 31.4897 13.7166C31.4833 13.723 31.4147 13.7067 31.3374 13.6804C30.8758 13.5232 30.2281 13.7338 29.7603 14.1933C29.653 14.2986 29.5652 14.3951 29.5652 14.4077C29.5652 14.4202 29.626 14.406 29.7002 14.3761C30.1131 14.2096 30.569 14.122 30.9532 14.1354C31.1854 14.1435 31.2428 14.1535 31.3381 14.2025C31.4784 14.2748 31.5391 14.3547 31.554 14.4874L31.5657 14.591L31.4002 14.6673C31.3078 14.7099 31.1125 14.7689 30.9575 14.801C30.5347 14.8885 30.4149 14.9254 30.2108 15.0307C29.883 15.1998 29.6004 15.5184 29.3078 16.0483C29.1792 16.2811 29.1514 16.3564 29.0609 16.7173C28.9389 17.2034 28.8418 17.7613 28.8216 18.0921C28.8135 18.2246 28.812 18.333 28.8184 18.333C28.8247 18.333 28.9256 18.2184 29.0425 18.0784C29.6367 17.367 30.351 16.7292 30.8564 16.4587C31.1323 16.311 31.3068 16.261 31.511 16.2713C31.6834 16.28 31.685 16.2807 31.7825 16.3884C31.8526 16.4658 31.9165 16.5832 32.0062 16.7987C32.1302 17.0971 32.3169 17.4881 32.4019 17.6279C32.4449 17.6988 32.4457 17.6706 32.4433 16.0387C32.4409 14.3243 32.4498 14.0765 32.5484 13.1002C32.6726 11.8704 32.9496 10.4621 33.3674 8.93648C33.6069 8.06176 33.7774 7.27389 33.7265 7.27701C33.7167 7.27762 33.6601 7.29708 33.6009 7.32028ZM37.6643 10.6095C37.6781 10.6353 37.6947 10.6564 37.7012 10.6564C37.7076 10.6564 37.7016 10.6353 37.6878 10.6095C37.674 10.5836 37.6574 10.5625 37.6509 10.5625C37.6445 10.5625 37.6505 10.5836 37.6643 10.6095ZM22.0022 11.1959C21.7098 11.2326 21.3377 11.3131 21.0318 11.4058C20.7505 11.491 20.4378 11.6128 20.574 11.5841C20.6063 11.5773 20.8123 11.5651 21.0318 11.5568C22.0619 11.5182 22.7607 11.759 23.3557 12.3578C23.472 12.4748 23.6535 12.6918 23.759 12.8401C24.0788 13.2896 24.3884 13.6155 24.7996 13.9357C25.3019 14.3268 25.9226 14.5662 26.224 14.485C26.3143 14.4607 26.4664 14.3273 26.4664 14.2723C26.4664 14.2607 26.3016 14.0893 26.1001 13.8916C25.8739 13.6696 25.6526 13.4245 25.5211 13.2505C25.4041 13.0955 25.1513 12.7605 24.9594 12.5058C24.7675 12.2513 24.5268 11.9593 24.4245 11.857C24.1122 11.5447 23.7937 11.3615 23.3679 11.2494C23.1699 11.1972 23.0887 11.1897 22.6516 11.1834C22.3805 11.1795 22.0882 11.1851 22.0022 11.1959ZM22.1469 13.3051C21.7736 13.4301 21.477 13.6596 21.1559 14.0717C20.8699 14.4389 20.6033 14.9416 20.5162 15.2779C20.4963 15.3544 20.4801 15.424 20.4801 15.4326C20.4801 15.4411 20.5335 15.4185 20.5987 15.3822C20.7046 15.3234 20.7269 15.2962 20.8064 15.1285C21.0112 14.6969 21.4514 14.2672 21.8725 14.0879C21.9966 14.0351 22.052 14.026 22.2525 14.0256C22.4695 14.0252 22.4971 14.0305 22.6164 14.0956C23.0132 14.312 23.5675 15.0256 24.0024 15.8797C24.2251 16.3172 24.2824 16.4888 24.3983 17.0653C24.5497 17.8179 24.6377 18.1225 24.683 18.0509C24.7123 18.0046 24.7117 17.3135 24.6822 16.9337C24.6449 16.4552 24.5667 15.8067 24.5159 15.5552C24.453 15.2434 24.306 14.8039 24.1907 14.5826C23.9208 14.0649 23.3371 13.4975 22.903 13.3308C22.7129 13.2578 22.3273 13.2447 22.1469 13.3051ZM19.7763 15.684L19.6476 15.709L19.8584 15.7846C20.1106 15.8749 20.1209 15.88 20.6512 16.18C20.931 16.3382 21.0649 16.4265 21.0569 16.4474C21.0503 16.4646 21.0222 16.5974 20.9944 16.7424C20.9557 16.9446 20.9466 17.0609 20.9553 17.2411C20.97 17.5431 21.0172 17.6688 21.2226 17.952L21.2613 18.0054L21.1481 17.9569C21.0234 17.9034 20.7786 17.7354 20.6994 17.6488C20.6716 17.6184 20.5937 17.5142 20.5264 17.4174L20.404 17.2413L20.4184 17.3587C20.4495 17.6138 20.7041 18.015 21.0615 18.3724C21.8574 19.1683 22.5675 19.2658 23.2077 18.6669L23.3208 18.5612L23.4553 18.6504C23.6243 18.7627 24.036 19.1598 24.2141 19.3824C24.3637 19.5694 24.3771 19.5667 24.3771 19.3498C24.3771 19.0018 23.9824 18.2146 23.463 17.5267C22.8903 16.768 21.6933 15.9944 20.6914 15.7354C20.4341 15.6689 19.9841 15.6436 19.7763 15.684ZM31.0676 17.1696C30.9367 17.2183 30.8057 17.3039 30.8185 17.3325C30.9443 17.614 30.9585 17.6695 30.9683 17.9221C30.9751 18.0987 30.9674 18.2268 30.9439 18.3271C30.9251 18.4078 30.9153 18.4738 30.9224 18.4738C30.9294 18.4738 30.9656 18.4395 31.0029 18.3975L31.0707 18.3212L31.0571 18.4381C31.0402 18.5839 30.9305 18.8215 30.805 18.9842C30.5483 19.3169 30.0642 19.5471 29.3547 19.6739C29.2058 19.7005 29.0819 19.7242 29.0795 19.7266C29.0704 19.7353 29.3283 20.3254 29.4758 20.6336C29.5592 20.8079 29.8372 21.3466 30.0934 21.8308C30.5175 22.6321 30.7489 23.0925 30.9468 23.5289L31.0186 23.6872L31.1551 23.6182C31.4965 23.4459 32.9226 22.9089 33.4299 22.7617L33.6911 22.6859L33.5264 22.3229C33.4359 22.1233 33.0877 21.342 32.7528 20.5866C32.1971 19.3337 32.115 19.131 31.8154 18.2744C31.6348 17.7581 31.4668 17.303 31.4422 17.2631C31.3661 17.1399 31.2352 17.1072 31.0676 17.1696ZM22.2086 17.5172C22.1746 17.6443 22.1936 17.8765 22.2467 17.9803C22.3522 18.187 22.5164 18.2317 22.7235 18.1103L22.8334 18.0459L22.5433 17.7551C22.3838 17.5952 22.2464 17.4644 22.238 17.4644C22.2296 17.4644 22.2164 17.4881 22.2086 17.5172ZM29.3797 18.3946C29.2783 18.5098 29.2323 18.626 29.2535 18.7139C29.2739 18.7985 29.3787 18.8949 29.4798 18.9221C29.5875 18.9511 29.7384 18.9307 29.7234 18.8891C29.7179 18.8737 29.668 18.7317 29.6126 18.5736C29.5572 18.4154 29.5036 18.286 29.4936 18.286C29.4835 18.286 29.4323 18.3349 29.3797 18.3946ZM14.9741 22.318C15.3325 23.1663 15.9943 24.5365 16.3546 25.1761C17.9162 27.949 19.6549 29.6882 21.7947 30.618C22.0811 30.7424 22.7097 30.9713 22.7244 30.9566C22.7342 30.9468 23.9922 28.8083 24.0948 28.627L24.1746 28.4862L23.7887 28.8499C23.2949 29.3154 22.6209 29.9854 22.5273 30.1038L22.4548 30.1956L22.3226 30.1156C21.9551 29.8931 21.4722 29.4709 21.0093 28.9674C20.4382 28.3461 20.0676 27.8939 18.8836 26.3734C17.1117 24.0979 16.3812 23.2671 15.5699 22.6045C15.3457 22.4215 14.9437 22.136 14.9101 22.136C14.903 22.136 14.9318 22.2179 14.9741 22.318ZM28.4475 23.0026C28.2893 23.0595 28.1387 23.1493 28.0077 23.2646C27.8545 23.3994 27.8524 23.4268 27.9853 23.5524L28.0975 23.6584L28.1276 23.5551C28.1654 23.4256 28.3458 23.1881 28.5058 23.0574C28.6398 22.948 28.6285 22.9374 28.4475 23.0026ZM30.0582 24.1444C29.9122 24.3467 29.4968 24.5938 29.0722 24.7309C28.9625 24.7664 28.8654 24.8018 28.8564 24.8097C28.8475 24.8176 28.8551 24.9349 28.8733 25.0705C28.8915 25.206 28.9067 25.3262 28.9071 25.3376C28.9086 25.3791 29.1124 25.3245 29.2981 25.233C29.6256 25.0714 30.0294 24.6973 30.1681 24.4268C30.2225 24.3208 30.2249 24.3037 30.1973 24.2201C30.1455 24.0632 30.1249 24.052 30.0582 24.1444ZM15.6418 26.4084C15.5345 26.4651 15.4168 26.5986 15.3625 26.7252C15.2883 26.8985 15.2693 27.0669 15.2702 27.5472C15.2722 28.6256 15.047 29.2291 14.2509 30.2783C14.0811 30.5021 13.895 30.7494 13.8375 30.8278L13.7328 30.9705L13.9079 31.132C15.1497 32.2779 15.9839 32.9427 16.7717 33.4142C17.4487 33.8194 18.004 34.0147 18.4788 34.0147C18.8877 34.0147 19.1658 33.8965 19.4723 33.5923C19.7266 33.34 19.8292 33.1825 20.1979 32.479C20.3617 32.1663 20.5464 31.8319 20.6084 31.736C20.7536 31.5109 21.0197 31.2493 21.1778 31.1764C21.245 31.1454 21.2951 31.1119 21.289 31.1022C21.2448 31.0306 20.7712 30.7621 19.7171 30.211C17.9261 29.2747 17.1638 28.8042 16.4687 28.2061C16.1159 27.9025 15.8497 27.5666 15.7137 27.2537C15.6672 27.1467 15.6575 27.0844 15.6567 26.8898C15.6559 26.6818 15.6632 26.6394 15.7204 26.5173C15.7559 26.4415 15.785 26.3754 15.785 26.3705C15.785 26.3498 15.7204 26.3668 15.6418 26.4084ZM24.4087 29.6649C24.0104 30.3197 23.6845 30.8646 23.6845 30.8758C23.6845 30.887 23.7743 30.9253 23.8841 30.9609C24.3877 31.124 24.7176 31.3975 24.9203 31.8197C25.1509 32.3002 25.1979 32.8769 25.0811 33.7917C25.058 33.9725 25.0428 34.1242 25.0473 34.129C25.064 34.1465 25.3481 33.8574 25.4596 33.7095C25.7035 33.3862 25.919 32.8746 26.0181 32.3832C26.2556 31.2067 26.0269 29.7618 25.4625 28.8735C25.3684 28.7253 25.1709 28.4747 25.1482 28.4745C25.1398 28.4745 24.807 29.0102 24.4087 29.6649ZM17.8297 30.0341C17.7986 30.0508 17.7551 30.0598 17.7328 30.054C17.6691 30.0373 17.5012 30.1355 17.3792 30.2608C17.2667 30.3763 17.17 30.5764 17.17 30.6938C17.17 30.7523 17.2022 30.7711 17.2287 30.7281C17.2367 30.7152 17.2553 30.7046 17.2701 30.7046C17.2849 30.7046 17.2578 30.7447 17.21 30.7937C17.149 30.8561 17.1232 30.9034 17.1234 30.9521C17.1239 31.0413 17.1525 31.0855 17.1982 31.068C17.2194 31.0599 17.2403 31.0695 17.2486 31.0912C17.2606 31.1224 17.2705 31.1235 17.3111 31.0984C17.3482 31.0754 17.3633 31.0749 17.3768 31.0966C17.3988 31.132 17.4359 31.1086 17.4748 31.0349C17.5016 30.9841 17.499 30.9729 17.4514 30.9344L17.3979 30.8911L17.4456 30.8389C17.5216 30.7559 17.5315 30.6905 17.4764 30.6354C17.4233 30.5823 17.431 30.5745 17.5002 30.6116C17.5571 30.642 17.5591 30.7333 17.5048 30.8253C17.4768 30.8727 17.472 30.8997 17.4894 30.911C17.5034 30.9202 17.5298 30.9589 17.5479 30.9971C17.566 31.0354 17.6316 31.098 17.6937 31.1363L17.8065 31.206L17.9167 31.1665C18.0404 31.1221 18.1273 31.1169 18.1795 31.1507C18.2048 31.167 18.181 31.1735 18.0951 31.1738C17.9243 31.1743 17.8945 31.2139 17.9133 31.4157C17.9274 31.5659 17.9303 31.5719 17.9833 31.5586C18.0187 31.5497 18.0386 31.555 18.0386 31.5732C18.0386 31.5899 18.0545 31.5957 18.0768 31.5871C18.0978 31.579 18.1269 31.5822 18.1414 31.594C18.1559 31.6059 18.2046 31.6137 18.2497 31.6113C18.3582 31.6057 18.3662 31.5534 18.2747 31.4492C18.2352 31.4043 18.203 31.3611 18.203 31.3533C18.203 31.3455 18.2629 31.3774 18.3361 31.4242C18.5014 31.53 18.6885 31.6065 18.872 31.6434C18.9678 31.6627 19.0713 31.709 19.1953 31.788C19.7059 32.1133 20.0355 32.1665 19.7289 31.8741C19.6643 31.8125 19.6115 31.7558 19.6115 31.7482C19.6115 31.7256 19.5465 31.6671 19.5214 31.6671C19.5087 31.6671 19.4705 31.6341 19.4366 31.5938C19.4026 31.5534 19.3691 31.5261 19.3621 31.5331C19.3359 31.5594 19.411 31.66 19.5557 31.7923C19.7137 31.9367 19.7438 31.9857 19.6469 31.9408C19.6147 31.9258 19.5883 31.9004 19.5882 31.8843C19.5881 31.8682 19.5722 31.8549 19.5528 31.8549C19.5335 31.8549 19.5176 31.8394 19.5176 31.8205C19.5176 31.7995 19.5038 31.7913 19.4824 31.7995C19.4601 31.8081 19.4472 31.7992 19.4472 31.7753C19.4472 31.7545 19.4313 31.7376 19.412 31.7376C19.3926 31.7376 19.3768 31.7242 19.3768 31.7079C19.3768 31.6916 19.3533 31.6679 19.3245 31.6551C19.2732 31.6324 19.2545 31.6028 19.18 31.4265C19.149 31.3533 19.1312 31.3385 19.0739 31.3385C18.9802 31.3385 18.9307 31.3167 18.9307 31.2756C18.9307 31.2465 18.9363 31.2469 18.9676 31.2781C18.99 31.3005 19.0452 31.315 19.1084 31.315C19.1929 31.315 19.2288 31.3296 19.3004 31.3933C19.4006 31.4823 19.4526 31.5075 19.5528 31.5156C19.5916 31.5187 19.6285 31.524 19.635 31.5274C19.6414 31.5309 19.6784 31.5362 19.7171 31.5394C19.7559 31.5425 19.7929 31.5473 19.7993 31.55C19.8058 31.5526 19.8427 31.5566 19.8815 31.5589C19.9202 31.5611 19.9625 31.5693 19.9754 31.577C20.0109 31.5985 20.1045 31.5558 20.1045 31.5182C20.1045 31.4567 20.0557 31.4358 19.6878 31.3394C19.6284 31.3238 19.588 31.2994 19.588 31.2792C19.588 31.2605 19.5523 31.2303 19.5087 31.2121C19.4651 31.1939 19.4222 31.1673 19.4134 31.1531C19.4046 31.1388 19.3579 31.1272 19.3094 31.1272C19.261 31.1272 19.2009 31.1117 19.1758 31.0927C19.1508 31.0738 19.1123 31.0579 19.0903 31.0575C19.0683 31.0571 18.968 30.9877 18.8673 30.9032C18.6462 30.7178 18.3832 30.581 18.147 30.5284C17.9475 30.484 17.8833 30.4476 17.905 30.3911C17.927 30.3336 18.1087 30.3415 18.3951 30.4125C18.8094 30.5151 19.1811 30.5145 19.3163 30.4111C19.3768 30.3649 19.3638 30.357 19.2015 30.3412C19.1254 30.3339 19.0506 30.3173 19.0351 30.3045C19.0197 30.2918 18.991 30.2875 18.9713 30.295C18.9516 30.3026 18.9285 30.2975 18.92 30.2837C18.9114 30.2699 18.8793 30.2586 18.8485 30.2586C18.8178 30.2586 18.7856 30.2472 18.7769 30.2332C18.7683 30.2193 18.7371 30.2139 18.7076 30.2213C18.671 30.2305 18.6493 30.2228 18.6394 30.1971C18.6295 30.1712 18.606 30.163 18.5647 30.1709C18.5265 30.1782 18.4999 30.1705 18.492 30.1501C18.4852 30.1323 18.455 30.1178 18.4249 30.1178C18.3947 30.1178 18.3635 30.1072 18.3556 30.0943C18.3476 30.0814 18.3159 30.0708 18.2851 30.0708C18.2544 30.0708 18.2224 30.0598 18.2141 30.0464C18.2058 30.0329 18.1783 30.0285 18.1529 30.0366C18.1276 30.0446 18.0927 30.0395 18.0756 30.0253C18.0546 30.0079 18.0252 30.0067 17.9858 30.0216C17.9532 30.034 17.9181 30.035 17.9066 30.0238C17.8951 30.0125 17.8611 30.0171 17.8297 30.0341ZM17.9127 30.1293C17.9201 30.1486 17.9356 30.1586 17.9472 30.1514C17.9803 30.131 17.9717 30.0943 17.9337 30.0943C17.9128 30.0943 17.9045 30.1081 17.9127 30.1293ZM18.0269 30.1412C18.0349 30.1541 18.0513 30.1647 18.0635 30.1647C18.0757 30.1647 18.0856 30.1541 18.0856 30.1412C18.0856 30.1283 18.0691 30.1178 18.049 30.1178C18.0289 30.1178 18.0189 30.1283 18.0269 30.1412ZM17.6985 30.1651C17.7066 30.1782 17.7231 30.1829 17.7351 30.1754C17.7676 30.1553 17.7616 30.1412 17.7203 30.1412C17.7002 30.1412 17.6904 30.152 17.6985 30.1651ZM17.8074 30.1635C17.8126 30.179 17.8244 30.1909 17.8338 30.1899C17.8619 30.187 17.8564 30.1548 17.8262 30.1447C17.8107 30.1396 17.8022 30.148 17.8074 30.1635ZM18.156 30.1647C18.156 30.1776 18.1666 30.1882 18.1795 30.1882C18.1924 30.1882 18.203 30.1776 18.203 30.1647C18.203 30.1518 18.1924 30.1412 18.1795 30.1412C18.1666 30.1412 18.156 30.1518 18.156 30.1647ZM17.5809 30.2351C17.5888 30.248 17.6053 30.2586 17.6175 30.2586C17.6296 30.2586 17.6395 30.248 17.6395 30.2351C17.6395 30.2222 17.6231 30.2117 17.603 30.2117C17.5828 30.2117 17.5729 30.2222 17.5809 30.2351ZM17.9567 30.2355C17.9648 30.2486 17.9813 30.2533 17.9933 30.2459C18.0259 30.2257 18.0198 30.2117 17.9786 30.2117C17.9584 30.2117 17.9486 30.2224 17.9567 30.2355ZM17.7217 30.2586C17.7297 30.2715 17.7462 30.2821 17.7583 30.2821C17.7705 30.2821 17.7804 30.2715 17.7804 30.2586C17.7804 30.2457 17.7639 30.2351 17.7438 30.2351C17.7237 30.2351 17.7137 30.2457 17.7217 30.2586ZM17.8508 30.2807C17.8508 30.2929 17.8614 30.3093 17.8743 30.3173C17.8872 30.3253 17.8978 30.3153 17.8978 30.2952C17.8978 30.2751 17.8872 30.2586 17.8743 30.2586C17.8614 30.2586 17.8508 30.2685 17.8508 30.2807ZM17.5104 30.329C17.5184 30.3419 17.5349 30.3525 17.547 30.3525C17.5592 30.3525 17.5691 30.3419 17.5691 30.329C17.5691 30.3161 17.5526 30.3056 17.5325 30.3056C17.5124 30.3056 17.5025 30.3161 17.5104 30.329ZM17.6513 30.3525C17.6593 30.3654 17.6757 30.376 17.6879 30.376C17.7 30.376 17.71 30.3654 17.71 30.3525C17.71 30.3396 17.6935 30.329 17.6734 30.329C17.6533 30.329 17.6433 30.3396 17.6513 30.3525ZM17.7839 30.3748C17.7891 30.3903 17.801 30.4022 17.8103 30.4012C17.8384 30.3983 17.833 30.3661 17.8027 30.356C17.7872 30.3509 17.7788 30.3593 17.7839 30.3748ZM17.5104 30.4464C17.5184 30.4593 17.5349 30.4699 17.547 30.4699C17.5592 30.4699 17.5691 30.4593 17.5691 30.4464C17.5691 30.4335 17.5526 30.4229 17.5325 30.4229C17.5124 30.4229 17.5025 30.4335 17.5104 30.4464ZM17.6513 30.4699C17.6593 30.4828 17.6757 30.4934 17.6879 30.4934C17.7 30.4934 17.71 30.4828 17.71 30.4699C17.71 30.457 17.6935 30.4464 17.6734 30.4464C17.6533 30.4464 17.6433 30.457 17.6513 30.4699ZM17.7921 30.4934C17.8001 30.5063 17.8166 30.5168 17.8287 30.5168C17.8409 30.5168 17.8508 30.5063 17.8508 30.4934C17.8508 30.4804 17.8344 30.4699 17.8142 30.4699C17.7941 30.4699 17.7842 30.4804 17.7921 30.4934ZM17.9447 30.5389C17.9447 30.5511 17.9553 30.5675 17.9682 30.5755C17.9811 30.5835 17.9917 30.5736 17.9917 30.5534C17.9917 30.5333 17.9811 30.5168 17.9682 30.5168C17.9553 30.5168 17.9447 30.5268 17.9447 30.5389ZM17.5574 30.5638C17.5654 30.5767 17.5818 30.5873 17.594 30.5873C17.6061 30.5873 17.6161 30.5767 17.6161 30.5638C17.6161 30.5509 17.5996 30.5403 17.5795 30.5403C17.5594 30.5403 17.5494 30.5509 17.5574 30.5638ZM17.7335 30.5873C17.7335 30.6002 17.744 30.6107 17.7569 30.6107C17.7698 30.6107 17.7804 30.6002 17.7804 30.5873C17.7804 30.5744 17.7698 30.5638 17.7569 30.5638C17.744 30.5638 17.7335 30.5744 17.7335 30.5873ZM18.0976 30.5876C18.1057 30.6008 18.1221 30.6054 18.1342 30.598C18.1667 30.5779 18.1607 30.5638 18.1194 30.5638C18.0993 30.5638 18.0895 30.5745 18.0976 30.5876ZM18.2414 30.6223C18.2488 30.6416 18.2643 30.6516 18.2759 30.6444C18.309 30.624 18.3004 30.5873 18.2624 30.5873C18.2414 30.5873 18.2332 30.601 18.2414 30.6223ZM17.8626 30.6342C17.8706 30.6471 17.887 30.6577 17.8992 30.6577C17.9113 30.6577 17.9213 30.6471 17.9213 30.6342C17.9213 30.6213 17.9048 30.6107 17.8847 30.6107C17.8645 30.6107 17.8546 30.6213 17.8626 30.6342ZM17.6431 30.6565C17.6482 30.672 17.6601 30.6839 17.6695 30.6829C17.6976 30.68 17.6921 30.6478 17.6619 30.6377C17.6464 30.6326 17.6379 30.641 17.6431 30.6565ZM18.3708 30.6565C18.376 30.672 18.3879 30.6839 18.3972 30.6829C18.4253 30.68 18.4199 30.6478 18.3896 30.6377C18.3741 30.6326 18.3657 30.641 18.3708 30.6565ZM18.0034 30.6812C18.0114 30.6941 18.0279 30.7046 18.04 30.7046C18.0522 30.7046 18.0621 30.6941 18.0621 30.6812C18.0621 30.6683 18.0456 30.6577 18.0255 30.6577C18.0054 30.6577 17.9954 30.6683 18.0034 30.6812ZM18.1595 30.7035C18.1647 30.719 18.1766 30.7308 18.1859 30.7299C18.214 30.727 18.2086 30.6948 18.1783 30.6847C18.1628 30.6795 18.1544 30.688 18.1595 30.7035ZM17.7921 30.7281C17.8001 30.741 17.8166 30.7516 17.8287 30.7516C17.8409 30.7516 17.8508 30.741 17.8508 30.7281C17.8508 30.7152 17.8344 30.7046 17.8142 30.7046C17.7941 30.7046 17.7842 30.7152 17.7921 30.7281ZM18.5082 30.7281C18.5082 30.741 18.5187 30.7516 18.5316 30.7516C18.5445 30.7516 18.5551 30.741 18.5551 30.7281C18.5551 30.7152 18.5445 30.7046 18.5316 30.7046C18.5187 30.7046 18.5082 30.7152 18.5082 30.7281ZM18.2969 30.7509C18.2969 30.7828 18.3386 30.8025 18.3538 30.7779C18.3611 30.7661 18.3512 30.7505 18.3319 30.743C18.3126 30.7357 18.2969 30.7392 18.2969 30.7509ZM17.9362 30.7867C17.9436 30.806 17.9591 30.8159 17.9707 30.8088C18.0038 30.7883 17.9952 30.7516 17.9572 30.7516C17.9363 30.7516 17.928 30.7654 17.9362 30.7867ZM18.0891 30.7974C18.0943 30.8129 18.1062 30.8247 18.1155 30.8238C18.1436 30.8209 18.1381 30.7887 18.1079 30.7786C18.0924 30.7734 18.0839 30.7819 18.0891 30.7974ZM18.629 30.7974C18.6342 30.8129 18.6461 30.8247 18.6555 30.8238C18.6835 30.8209 18.6781 30.7887 18.6478 30.7786C18.6323 30.7734 18.6239 30.7819 18.629 30.7974ZM18.426 30.822C18.434 30.8349 18.4504 30.8455 18.4626 30.8455C18.4747 30.8455 18.4847 30.8349 18.4847 30.822C18.4847 30.8091 18.4682 30.7985 18.4481 30.7985C18.428 30.7985 18.418 30.8091 18.426 30.822ZM18.23 30.8443C18.2401 30.8746 18.2722 30.88 18.2752 30.852C18.2761 30.8426 18.2642 30.8307 18.2487 30.8255C18.2332 30.8204 18.2248 30.8288 18.23 30.8443ZM18.5316 30.8778C18.5316 30.8827 18.5475 30.8998 18.5668 30.9159C18.5957 30.9399 18.6021 30.9382 18.6021 30.907C18.6021 30.8861 18.5862 30.869 18.5668 30.869C18.5475 30.869 18.5316 30.873 18.5316 30.8778ZM18.7312 30.8924C18.7392 30.9054 18.7556 30.9159 18.7678 30.9159C18.7799 30.9159 18.7899 30.9054 18.7899 30.8924C18.7899 30.8795 18.7734 30.869 18.7533 30.869C18.7331 30.869 18.7232 30.8795 18.7312 30.8924ZM18.3473 30.9147C18.3525 30.9302 18.3644 30.9421 18.3738 30.9412C18.4018 30.9382 18.3964 30.9061 18.3661 30.896C18.3506 30.8908 18.3422 30.8993 18.3473 30.9147ZM18.4729 30.9863C18.4809 30.9993 18.4974 31.0098 18.5095 31.0098C18.5217 31.0098 18.5316 30.9993 18.5316 30.9863C18.5316 30.9734 18.5151 30.9629 18.495 30.9629C18.4749 30.9629 18.465 30.9734 18.4729 30.9863ZM18.6607 30.9863C18.6687 30.9993 18.6852 31.0098 18.6973 31.0098C18.7095 31.0098 18.7194 30.9993 18.7194 30.9863C18.7194 30.9734 18.703 30.9629 18.6828 30.9629C18.6627 30.9629 18.6528 30.9734 18.6607 30.9863ZM18.5821 31.0556C18.5873 31.0711 18.5991 31.083 18.6085 31.082C18.6366 31.0791 18.6311 31.0469 18.6009 31.0368C18.5854 31.0317 18.5769 31.0401 18.5821 31.0556ZM18.7699 31.0556C18.78 31.0859 18.8122 31.0913 18.8151 31.0632C18.8161 31.0539 18.8042 31.042 18.7887 31.0368C18.7732 31.0317 18.7647 31.0401 18.7699 31.0556ZM19.3298 31.2186C19.3298 31.2424 19.4013 31.2748 19.4177 31.2584C19.4236 31.2525 19.4214 31.2364 19.4129 31.2227C19.3942 31.1924 19.3298 31.1892 19.3298 31.2186ZM22.3816 32.2123C22.1717 32.2858 22.0315 32.3727 21.8529 32.5397C21.4986 32.8712 21.3018 33.3269 21.3023 33.8152C21.3028 34.4525 21.6427 34.9414 22.1831 35.0821C22.5946 35.1893 23.0216 35.0449 23.3917 34.6734C23.6179 34.4464 23.7537 34.2162 23.8355 33.9212C23.8926 33.7151 23.9209 33.4232 23.8963 33.2957L23.8787 33.2048L23.8458 33.3315C23.7424 33.729 23.3958 34.0381 23.0534 34.0382C22.8385 34.0382 22.7386 33.9978 22.5912 33.8513C22.3874 33.6488 22.3185 33.3778 22.3916 33.0662C22.4415 32.8532 22.5265 32.7018 22.6748 32.5616C22.8438 32.4017 22.9673 32.3443 23.1794 32.3271L23.3559 32.3127L23.2033 32.2432C23.069 32.1819 23.0197 32.1727 22.7925 32.1662C22.5719 32.1599 22.512 32.1667 22.3816 32.2123Z" fill="#FBFAF1"/>
</svg>
