<svg width="20" height="18" viewBox="0 0 20 18" fill="none" xmlns="http://www.w3.org/2000/svg">
<path d="M6.92259 17.2297C7.92068 17.7425 8.90372 18 9.81945 18C10.586 17.9998 11.3054 17.8192 11.9457 17.4566L14.3057 16.1211C14.3479 16.0973 14.3845 16.066 14.4134 16.0292C14.4424 15.9924 14.4632 15.9508 14.4746 15.9066C14.486 15.8624 14.4878 15.8166 14.4799 15.7718C14.472 15.727 14.4545 15.684 14.4285 15.6454L12.3829 12.6039C12.3303 12.526 12.2462 12.4704 12.149 12.4494C12.0517 12.4283 11.9494 12.4435 11.8644 12.4915L9.4865 13.8379C9.12091 14.0447 8.65187 14.1109 8.20065 14.0199C7.74944 13.9287 7.36426 13.6886 7.1438 13.3606L3.91198 8.55585C3.44469 7.86112 3.68022 6.94711 4.43702 6.51844L4.43727 6.51821L6.90526 5.12048C6.99022 5.07232 7.05086 4.99519 7.07384 4.90603C7.09681 4.81688 7.08025 4.723 7.0278 4.64504L4.98189 1.60426C4.95596 1.5656 4.92198 1.53201 4.88189 1.50542C4.84179 1.47883 4.79638 1.45976 4.74823 1.4493C4.70009 1.43883 4.65017 1.43719 4.60134 1.44445C4.5525 1.45171 4.5057 1.46774 4.46363 1.49162L1.99764 2.88797C-0.750825 4.44418 -0.654405 8.52936 2.23267 12.8225C3.55618 14.7911 5.22193 16.3563 6.92259 17.2297ZM2.39362 3.47581L4.53896 2.2612L6.1894 4.71392L4.04179 5.93014L4.04079 5.93083C2.93146 6.5599 2.58595 7.89982 3.27119 8.91841L6.50301 13.723C6.82968 14.2092 7.38962 14.5633 8.03895 14.6945C8.67949 14.8233 9.35167 14.7259 9.88223 14.4255L11.9394 13.2606L13.5896 15.7138L11.55 16.8681C10.0605 17.7112 8.41157 17.2021 7.29069 16.6265C5.70001 15.8092 4.13118 14.3295 2.87371 12.4595C0.219651 8.51277 0.0222912 4.81849 2.39362 3.47581ZM9.4501 5.23219C10.6689 5.2983 11.7476 5.87278 12.41 6.80868C13.0432 7.70057 13.1957 8.79356 12.8278 9.80754C12.8089 9.85946 12.8037 9.91477 12.8127 9.96889C12.8217 10.023 12.8446 10.0744 12.8795 10.1188C12.9144 10.1632 12.9603 10.1994 13.0134 10.2243C13.0666 10.2492 13.1254 10.2621 13.1851 10.262C13.343 10.262 13.4899 10.1706 13.5424 10.0257C13.9833 8.81084 13.8005 7.50063 13.0415 6.43183C12.2596 5.32664 10.9333 4.62017 9.49454 4.54208C9.28488 4.53402 9.10861 4.67614 9.0963 4.86664C9.09335 4.91195 9.10016 4.95736 9.11634 5.00027C9.13252 5.04317 9.15776 5.08272 9.19062 5.11667C9.22348 5.15062 9.2633 5.1783 9.30783 5.19812C9.35235 5.21794 9.40069 5.22952 9.4501 5.23219Z" fill="#1C1A1B"/>
<path d="M10.2393 2.83278C12.1836 3.03596 13.9095 4.00641 14.9744 5.49482C15.4843 6.20759 15.8198 7.01173 15.9582 7.85275C16.0965 8.69377 16.0345 9.55202 15.7764 10.3693C15.7604 10.4196 15.7575 10.4725 15.7679 10.524C15.7783 10.5754 15.8018 10.624 15.8364 10.6658C15.871 10.7076 15.9158 10.7414 15.9673 10.7647C16.0188 10.788 16.0756 10.8001 16.1331 10.8C16.2136 10.7999 16.2918 10.776 16.3561 10.732C16.4203 10.6879 16.4671 10.626 16.4893 10.5556C16.7768 9.64537 16.8458 8.68952 16.6918 7.75286C16.5377 6.81619 16.1641 5.92058 15.5963 5.12671C14.4104 3.46909 12.4889 2.38861 10.3239 2.16226C10.1243 2.14088 9.93657 2.27386 9.91307 2.45904C9.88957 2.64422 10.0355 2.8114 10.2393 2.83278Z" fill="#1C1A1B"/>
<path d="M10.2421 0.682721C11.5658 0.846437 12.8346 1.26179 13.9624 1.90065C15.0903 2.5395 16.0508 3.38692 16.779 4.3855C17.4938 5.36577 17.9691 6.46912 18.174 7.62382C18.3789 8.77852 18.3088 9.95872 17.9683 11.0877C17.9529 11.1386 17.9509 11.1919 17.9624 11.2436C17.9739 11.2953 17.9986 11.3439 18.0346 11.3857C18.0706 11.4276 18.1169 11.4614 18.1699 11.4847C18.223 11.508 18.2813 11.5201 18.3404 11.52C18.5101 11.52 18.6659 11.4194 18.7119 11.2661C19.0805 10.044 19.1564 8.76653 18.9346 7.51662C18.7129 6.2667 18.1984 5.07237 17.4246 4.01129C16.6363 2.93042 15.5965 2.01315 14.3757 1.32162C13.1548 0.630089 11.7815 0.180445 10.3486 0.00314658C10.2475 -0.00911784 10.1451 0.0147682 10.0637 0.0695856C9.98237 0.124403 9.92865 0.205695 9.91432 0.2957C9.90729 0.340295 9.9102 0.385688 9.92287 0.429281C9.93555 0.472875 9.95774 0.513814 9.98818 0.549759C10.0186 0.585703 10.0567 0.615948 10.1003 0.638763C10.1439 0.661577 10.192 0.676515 10.2421 0.682721Z" fill="#1C1A1B"/>
</svg>
