<svg width="39" height="40" viewBox="0 0 39 40" fill="none" xmlns="http://www.w3.org/2000/svg">
<path d="M31.3303 3.12171C31.9943 2.46977 32.1605 2.18202 32.4535 1.17814C32.6426 0.530232 32.8469 0 32.9075 0C32.9682 0 33.0925 0.351161 33.1838 0.780308C33.6283 2.87008 34.7103 3.87985 36.9264 4.27318C37.2437 4.32946 37.5031 4.43457 37.5031 4.50682C37.5031 4.57891 37.0361 4.77876 36.465 4.95085C35.894 5.12295 35.0637 5.50558 34.6196 5.80124C34.1754 6.0969 33.8122 6.2783 33.8122 6.2045C33.8122 5.90744 34.5991 5.15519 35.1918 4.88574L35.8219 4.59938L35.2781 4.41085C34.4172 4.1124 33.6869 3.45721 33.253 2.59395L32.8519 1.79612L32.5459 2.40977C32.1293 3.2445 31.5692 3.82543 30.6875 4.33721C30.0024 4.73488 29.9741 4.77426 30.3123 4.85985C31.0886 5.05628 32.6531 6.49163 32.3852 6.76155C32.3386 6.80853 31.9151 6.53023 31.4437 6.14325C30.6861 5.52124 29.4272 4.96124 28.7861 4.96124C28.6746 4.96124 28.5834 4.89147 28.5834 4.8062C28.5834 4.72093 28.6895 4.65116 28.8191 4.65116C29.2867 4.65116 30.5668 3.87147 31.3303 3.12171Z" fill="#384B35"/>
<path fill-rule="evenodd" clip-rule="evenodd" d="M18.581 8.6355C18.2199 9.30062 17.8497 9.99612 17.7584 10.1808C17.6343 10.4318 17.3587 10.5606 16.6672 10.6909C14.2366 11.1488 14.1273 11.1812 14.1273 11.4417C14.1273 11.5829 14.6589 12.2377 15.3085 12.8964L16.4898 14.0944L16.2191 15.8017C16.0702 16.7408 15.9918 17.5802 16.045 17.6668C16.103 17.7614 16.8001 17.4915 17.7874 16.9922L19.4333 16.1602L21.0899 16.998C22.5324 17.7276 22.7596 17.8019 22.8468 17.5727C22.9383 17.3326 22.7023 15.253 22.4969 14.4867C22.4304 14.2392 22.6591 13.9247 23.5108 13.0913C24.1155 12.4997 24.6825 11.8816 24.7708 11.7177C25.0124 11.2696 24.6404 11.0829 23.047 10.8527C22.2842 10.7425 21.5486 10.5701 21.4122 10.4696C21.2758 10.369 20.844 9.66418 20.4524 8.9031C20.0601 8.14046 19.6277 7.49845 19.4891 7.47271C19.3136 7.44016 19.0386 7.7924 18.581 8.6355ZM17.6945 11.0668C17.8382 11.0257 18.2771 10.3975 18.67 9.6707C19.0631 8.94388 19.4274 8.3924 19.4797 8.44512C19.5322 8.49799 19.8908 9.11302 20.2768 9.81194L20.9785 11.0828L22.0512 11.2733C22.6411 11.3781 23.3564 11.5053 23.6406 11.5561L24.1572 11.6484L23.0316 12.6967L21.9059 13.7451L22.074 15.2834C22.1664 16.1295 22.2218 16.8445 22.1972 16.8722C22.1724 16.9 21.6043 16.6384 20.9347 16.2909C20.2651 15.9433 19.5998 15.6589 19.4563 15.6589C19.3128 15.6589 18.6449 15.938 17.972 16.2791C16.5854 16.9819 16.5164 17.0005 16.656 16.6338C16.7115 16.4879 16.8306 15.8172 16.9205 15.1436L17.084 13.9186L15.9647 12.7826C15.3441 12.1527 15.0156 11.8711 15.0656 11.7057C15.117 11.5359 15.5676 11.4888 16.511 11.3132C17.0185 11.2188 17.551 11.1079 17.6945 11.0668Z" fill="#384B35"/>
<path fill-rule="evenodd" clip-rule="evenodd" d="M7.66721 3.06449C7.66829 2.17271 8.18609 1.49923 9.12912 1.1631C9.63401 0.983103 11.481 0.943257 19.433 0.940467C28.5572 0.937211 29.1584 0.953798 29.752 1.22558C30.5243 1.57922 31.0826 2.3217 31.0159 2.90666C30.9482 3.4986 30.5816 3.44077 30.3721 2.80527C30.2764 2.51473 30.0028 2.13101 29.764 1.95256C29.3356 1.63209 29.2024 1.62729 19.5386 1.58574C12.3888 1.55488 9.63155 1.59194 9.31767 1.72295C8.76911 1.95209 8.28329 2.57271 8.28329 3.04419V3.41085H19.1254C25.3849 3.41085 29.9675 3.4693 29.9675 3.5493C29.9675 3.62543 29.858 3.73008 29.7242 3.78186C29.5904 3.83364 24.7177 3.87597 18.8959 3.87597H8.31097L8.19855 5.23256C8.04553 7.08 8.21655 11.6744 8.50859 13.5633C9.10406 17.4149 10.7896 20.996 13.1152 23.3509C14.0001 24.247 14.4925 24.5932 15.742 25.1981L17.2799 25.9428L19.433 25.9794C20.6171 25.9995 21.6552 25.96 21.7398 25.8916C21.8244 25.8233 22.33 25.5891 22.8637 25.3715C25.6986 24.2147 28.1057 21.2921 29.4838 17.3333C30.2955 15.0017 30.6052 12.9989 30.6964 9.49225C30.7415 7.76341 30.835 6.31349 30.9045 6.27008C31.2012 6.08542 31.5054 7.14589 31.5054 8.36434C31.5054 9.45039 31.5403 9.61209 31.7745 9.61054C31.9224 9.60946 32.1943 9.37395 32.3786 9.08713C32.7852 8.4538 33.8471 7.90682 34.6682 7.9076C35.3365 7.90822 36.1625 8.34 36.4189 8.82264C37.251 10.3902 36.2437 13.6784 34.3449 15.5927C33.5763 16.3676 33.0242 16.7451 31.7619 17.3589C30.879 17.7882 30.09 18.1395 30.0085 18.1395C29.927 18.1395 29.73 18.4361 29.5707 18.7985C29.4114 19.1608 29.0549 19.8653 28.7784 20.3637C28.502 20.8622 28.2758 21.2983 28.2758 21.3327C28.2758 21.3671 28.5137 21.3953 28.8045 21.3953C29.2807 21.3953 29.3748 21.3183 29.7522 20.6192C30.0979 19.9788 30.3212 19.7727 31.0305 19.44C34.0333 18.0315 34.1754 17.9423 35.4276 16.6819C37.4102 14.6859 38.2748 12.7031 38.2687 10.1656C38.2633 7.90729 37.667 7.01628 35.7611 6.41845C34.9624 6.1679 34.8947 6.11551 35.1385 5.93582C35.7934 5.45287 37.4831 6.21628 38.223 7.32915C39.1282 8.69085 39.2442 10.5688 38.5621 12.8259C38.0555 14.5028 37.2758 15.7651 35.9026 17.1318C34.662 18.3665 33.8299 18.8881 31.4766 19.9057C30.7761 20.2087 30.5399 20.407 30.289 20.9025C29.7597 21.9487 28.6787 22.5147 28.1768 22.0087C28.0651 21.8961 27.8094 22.1171 27.3386 22.7326C26.3828 23.9822 25.0238 25.0719 23.5529 25.7681C22.3712 26.3274 22.283 26.4026 22.1773 26.9425C22.0626 27.5281 22.0567 28.0797 22.1495 29.6124C22.2078 30.5752 22.6261 31.3781 23.4204 32.0526C23.6978 32.2879 24.0466 32.6724 24.1956 32.907C24.4094 33.2436 24.5841 33.3335 25.0255 33.334C26.0765 33.335 27.1974 34.3955 27.1987 35.3901C27.1993 35.769 27.2519 35.8149 27.6516 35.7842C27.9178 35.7637 28.2343 35.8682 28.4205 36.0383C28.701 36.2941 28.7372 36.5088 28.7372 37.92C28.7372 39.1612 28.6838 39.5665 28.4956 39.7564C28.2815 39.9721 27.2505 40 19.4725 40C11.5173 40 10.6647 39.9758 10.41 39.7434C10.1738 39.5279 10.1288 39.2423 10.1288 37.9605C10.1288 36.2355 10.3402 35.814 11.2053 35.814C11.6059 35.814 11.6666 35.7578 11.6673 35.3876C11.6679 34.8633 12.1406 34.0538 12.638 33.7253C12.842 33.5905 13.4277 33.4059 13.9395 33.315C14.725 33.1755 14.8842 33.0924 14.9617 32.7809C15.0123 32.578 15.1801 32.3439 15.3347 32.2605C15.4892 32.1771 15.9167 31.7154 16.2848 31.2346C16.8032 30.5571 16.9188 30.3047 16.7987 30.1126C16.6917 29.9417 16.7044 29.6938 16.8398 29.3123C17.1015 28.5743 17.0951 28.2234 16.8001 27.1538C16.5753 26.3389 16.4962 26.231 15.9927 26.053C14.4877 25.5208 12.9279 24.3256 11.6812 22.7498C11.035 21.9327 10.983 21.9006 10.55 22.0529C9.90438 22.2797 9.14974 21.8857 8.76173 21.1189C8.36403 20.3332 8.25022 20.2496 6.62606 19.5498C4.9187 18.8141 4.01581 18.2039 2.82379 16.9802C0.907895 15.0133 -0.114642 12.3687 0.0102343 9.70357C0.086821 8.06605 0.505892 7.04899 1.44692 6.21597C2.81764 5.00263 4.8152 4.87504 6.68619 5.88109L7.47282 6.30403L7.56956 5.05132C7.62277 4.36217 7.66675 3.46822 7.66721 3.06449ZM33.7353 8.70899C33.5661 8.80388 33.1121 9.22031 32.7264 9.63457C32.3015 10.0907 31.8923 10.3876 31.6884 10.3876C31.3936 10.3876 31.3516 10.4715 31.3516 11.06C31.3516 12.0033 30.9762 14.4166 30.5959 15.9174C30.4195 16.6136 30.2751 17.2203 30.2751 17.2653C30.2751 17.4153 31.8795 16.6926 32.6588 16.1913C34.2711 15.1541 35.4831 13.4095 35.8985 11.5271C36.1948 10.1839 36.1024 9.42651 35.5775 8.89736C35.174 8.49054 34.2868 8.39985 33.7353 8.70899ZM17.6156 28.0036C17.5673 27.4814 17.4851 26.9121 17.4329 26.7385C17.3407 26.431 17.3953 26.4228 19.5015 26.4284C21.3667 26.4333 21.6507 26.4662 21.5615 26.6667C21.3693 27.0991 21.315 29.2991 21.4914 29.5133C21.5843 29.6262 21.6288 29.7502 21.5903 29.789C21.5088 29.8712 17.1657 29.7816 17.0808 29.6958C17.0494 29.6642 17.1766 29.484 17.3634 29.2957C17.6639 28.9927 17.6931 28.8428 17.6156 28.0036ZM17.3302 30.8893C17.1909 31.184 16.6824 31.8546 16.2006 32.3792L15.3245 33.3333H19.5143H23.7043L22.9936 32.5674C22.6027 32.1462 22.0915 31.5008 21.8576 31.1333L21.4322 30.4651L19.508 30.4093L17.5838 30.3533L17.3302 30.8893ZM12.2818 35.5712C12.2818 35.2527 12.5509 34.7363 12.9429 34.3023L13.2582 33.9535H19.3982H25.5384L26.0612 34.4806C26.3877 34.8098 26.5841 35.1591 26.5841 35.4109V35.814H19.433C13.0455 35.814 12.2818 35.7881 12.2818 35.5712ZM10.8977 37.9057V39.3798H19.5157H28.1335L28.0894 37.9457L28.0451 36.5116L19.4714 36.4716L10.8977 36.4315V37.9057ZM3.79005 13.5491C2.69754 11.5056 2.61987 8.97829 3.63118 8.38449C4.06533 8.12961 4.93854 8.19457 5.4705 8.5217C5.74193 8.68853 6.10918 9.11194 6.28665 9.46248C6.49073 9.86589 6.76831 10.1557 7.04267 10.2523C7.46621 10.4009 7.48082 10.4453 7.66598 12.1355C7.77025 13.0874 8.04645 14.6552 8.27975 15.6192C8.30664 15.7303 8.33228 15.8352 8.35645 15.934C8.55397 16.7416 8.65246 17.1443 8.51963 17.2491C8.3875 17.3534 8.02651 17.1631 7.30646 16.7833C7.21794 16.7366 7.12399 16.6871 7.02438 16.6349C5.79561 15.991 4.3666 14.6276 3.79005 13.5491ZM2.7469 6.1383C1.3994 6.72574 0.592016 8.19209 0.596168 10.0447C0.604627 13.9091 3.07908 17.394 6.95855 19.005C8.3142 19.5679 9.35981 20.3668 9.35981 20.8397C9.35981 21.0969 9.86069 21.551 10.1409 21.5481C10.7765 21.5411 10.7516 21.2995 9.9582 19.7803C9.30752 18.5343 9.0813 18.2347 8.68652 18.0966C8.42247 18.004 7.61553 17.6305 6.89334 17.2665C4.12192 15.8695 2.29307 13.1206 2.28738 10.3439C2.28508 9.24496 2.55112 8.56574 3.19919 8.01597C4.26356 7.11302 6.08226 7.64202 6.82322 9.07008C7.35409 10.0932 7.51434 9.95147 7.51434 8.45907V7.12496L6.78923 6.66124C6.3903 6.40636 5.81944 6.12915 5.52047 6.04543C4.72631 5.8231 3.36544 5.86868 2.7469 6.1383Z" fill="#384B35"/>
</svg>
