<svg width="26" height="40" viewBox="0 0 26 40" fill="none" xmlns="http://www.w3.org/2000/svg">
<path d="M25.1926 12.7852C25.1926 14.4739 24.4211 17.0006 23.2238 19.8828C22.0329 22.7498 20.4425 25.9194 18.8488 28.875C17.2557 31.8293 15.6615 34.5638 14.466 36.5605C13.8683 37.5588 13.3701 38.3729 13.0217 38.9365C12.9269 39.0899 12.8433 39.2248 12.7717 39.3398C12.6999 39.2246 12.6147 39.0902 12.5197 38.9365C12.1713 38.3729 11.674 37.5588 11.0763 36.5605C9.88084 34.5638 8.28662 31.8293 6.69353 28.875C5.09981 25.9195 3.50942 22.7497 2.31853 19.8828C1.12129 17.0006 0.349784 14.4739 0.349784 12.7852C0.350038 5.91712 5.91142 0.349825 12.7707 0.349609C19.6301 0.349609 25.1923 5.91699 25.1926 12.7852Z" fill="#FBFAF1" stroke="#384B35" stroke-width="0.7"/>
<path d="M12.6503 1.79517C17.31 1.79517 21.0956 5.62638 21.0956 10.3616C21.0955 15.0966 17.3099 18.927 12.6503 18.927C7.99089 18.9269 4.2052 15.0965 4.20502 10.3616C4.20502 5.62647 7.99078 1.79531 12.6503 1.79517Z" fill="#FBFAF1" stroke="#384B35" stroke-width="0.7"/>
<circle cx="12.6508" cy="5.90339" r="4.10783" fill="#FBFAF1" stroke="#384B35" stroke-width="0.7"/>
</svg>
